<svg xmlns="http://www.w3.org/2000/svg" width="11" height="624" viewBox="0 0 11 624">
  <path fill="#73787D" fill-rule="evenodd" d="M6,12.5147415 L6,624 L5,624 L5,12.5147415 C4.93918156,12.4795831 4.88124528,12.4374957 4.82732721,12.3884793 L0.327327206,8.29757019 C0.11885281,8.10804801 -1.99209284e-15,7.83937509 -1.77635684e-15,7.55763011 L-6.9388939e-17,1 C-6.76353751e-17,0.44771525 0.44771525,1.01453063e-16 1,3.51067486e-16 L10,3.51067486e-16 C10.5522847,-6.38418645e-16 11,0.44771525 11,1 L11,7.55763011 C11,7.83937509 10.8811472,8.10804801 10.6726728,8.29757019 L6.17267279,12.3884793 C6.11875472,12.4374957 6.06081844,12.4795831 6,12.5147415 Z"/>
</svg>
