<svg xmlns="http://www.w3.org/2000/svg" width="11" height="13" viewBox="0 0 11 13">
  <path fill="#000" fill-rule="evenodd" d="M1,3.51067486e-16 L10,3.51067486e-16 L10,4.4408921e-16 C10.5522847,-6.38418645e-16 11,0.44771525 11,1 L11,7.55763011 L11,7.55763011 C11,7.83937509 10.8811472,8.10804801 10.6726728,8.29757019 L6.17267279,12.3884793 L6.17267279,12.3884793 C5.79125157,12.7352258 5.20874843,12.7352258 4.82732721,12.3884793 L0.327327206,8.29757019 L0.327327206,8.29757019 C0.11885281,8.10804801 -1.99209284e-15,7.83937509 -1.77635684e-15,7.55763011 L-6.9388939e-17,1 L0,1 C-6.76353751e-17,0.44771525 0.44771525,1.01453063e-16 1,0 Z"/>
</svg>
