<svg xmlns="http://www.w3.org/2000/svg" width="368" height="447" viewBox="0 0 368 447">
  <g fill="none" fill-rule="evenodd" transform="translate(-1 -1)">
    <g transform="translate(14 24.5)">
      <circle cx="19.5" cy="19.5" r="19.5" fill="#FFF" stroke="#4A4036"/>
      <circle cx="19.5" cy="83.5" r="19.5" fill="#FFF" stroke="#8F1B0E" stroke-width="2"/>
      <circle cx="19.5" cy="147.5" r="19.5" fill="#FFF" stroke="#4A4036"/>
      <circle cx="19.5" cy="211.5" r="19.5" fill="#FFF" stroke="#4A4036"/>
      <circle cx="19.5" cy="275.5" r="19.5" fill="#FFF" stroke="#4A4036"/>
      <circle cx="19.5" cy="339.5" r="19.5" fill="#FFF" stroke="#4A4036"/>
      <circle cx="19.5" cy="403.5" r="19.5" fill="#FFF" stroke="#4A4036"/>
      <text fill="#4A4036" font-family="SourceSansPro-Regular, Source Sans Pro" font-size="16">
        <tspan x="15.774" y="25.5">8</tspan>
      </text>
      <text fill="#8F1B0E" font-family="SourceSansPro-Bold, Source Sans Pro" font-size="18" font-weight="bold">
        <tspan x="14.998" y="90.5">7</tspan>
      </text>
      <text fill="#4A4036" font-family="SourceSansPro-Regular, Source Sans Pro" font-size="16">
        <tspan x="15.774" y="153.5">6</tspan>
      </text>
      <text fill="#4A4036" font-family="SourceSansPro-Regular, Source Sans Pro" font-size="16">
        <tspan x="15.774" y="218">5</tspan>
      </text>
      <text fill="#4A4036" font-family="SourceSansPro-Regular, Source Sans Pro" font-size="16">
        <tspan x="15.774" y="281.5">4</tspan>
      </text>
      <text fill="#4A4036" font-family="SourceSansPro-Regular, Source Sans Pro" font-size="16">
        <tspan x="15.774" y="346">3</tspan>
      </text>
      <text fill="#4A4036" font-family="SourceSansPro-Regular, Source Sans Pro" font-size="16">
        <tspan x="15.774" y="410">2</tspan>
      </text>
    </g>
    <g transform="translate(165.5 216.5)">
      <circle cx="19.5" cy="19.5" r="19.5" fill="#FFF" stroke="#4A4036"/>
      <text fill="#4A4036" font-family="SourceSansPro-Regular, Source Sans Pro" font-size="24">
        <tspan x="13.786" y="28.5">+</tspan>
      </text>
    </g>
    <g transform="translate(317 56.5)">
      <circle cx="19.5" cy="19.5" r="19.5" fill="#FFF" stroke="#4A4036"/>
      <circle cx="19.5" cy="83.5" r="19.5" fill="#FFF" stroke="#4A4036"/>
      <circle cx="19.5" cy="147.5" r="19.5" fill="#FFF" stroke="#4A4036"/>
      <circle cx="19.5" cy="211.5" r="19.5" fill="#FFF" stroke="#8F1B0E" stroke-width="2"/>
      <circle cx="19.5" cy="275.5" r="19.5" fill="#FFF" stroke="#4A4036"/>
      <circle cx="19.5" cy="339.5" r="19.5" fill="#FFF" stroke="#4A4036"/>
      <text fill="#4A4036" font-family="SourceSansPro-Regular, Source Sans Pro" font-size="16">
        <tspan x="15.774" y="25">8</tspan>
      </text>
      <text fill="#4A4036" font-family="SourceSansPro-Regular, Source Sans Pro" font-size="16">
        <tspan x="15.774" y="89.5">7</tspan>
      </text>
      <text fill="#4A4036" font-family="SourceSansPro-Regular, Source Sans Pro" font-size="16">
        <tspan x="15.774" y="153">6</tspan>
      </text>
      <text fill="#8F1B0E" font-family="SourceSansPro-Bold, Source Sans Pro" font-size="18" font-weight="bold">
        <tspan x="14.998" y="218.5">5</tspan>
      </text>
      <text fill="#4A4036" font-family="SourceSansPro-Regular, Source Sans Pro" font-size="16">
        <tspan x="15.774" y="281">4</tspan>
      </text>
      <text fill="#4A4036" font-family="SourceSansPro-Regular, Source Sans Pro" font-size="16">
        <tspan x="15.774" y="345.5">3</tspan>
      </text>
    </g>
    <line x1="53" x2="165.5" y1="44" y2="236" stroke="#979797"/>
    <line x1="53" x2="165.5" y1="108.25" y2="236" stroke="#979797"/>
    <line x1="53" x2="165.5" y1="171.75" y2="236.25" stroke="#979797"/>
    <line x1="53" x2="165.5" y1="236" y2="236" stroke="#979797"/>
    <line x1="53" x2="165.5" y1="299.75" y2="236.25" stroke="#979797"/>
    <line x1="53" x2="165.5" y1="364" y2="236.25" stroke="#979797"/>
    <line x1="53" x2="165.5" y1="428" y2="236" stroke="#979797"/>
    <line x1="204.5" x2="317" y1="236" y2="75.25" stroke="#979797"/>
    <line x1="204.5" x2="317" y1="236" y2="139.75" stroke="#979797"/>
    <line x1="204.5" x2="317" y1="236.25" y2="203.25" stroke="#979797"/>
    <line x1="204.5" x2="317" y1="236.25" y2="267.75" stroke="#979797"/>
    <line x1="204.5" x2="317" y1="236.25" y2="328.777" stroke="#979797"/>
    <line x1="204.5" x2="317" y1="236.25" y2="395.75" stroke="#979797"/>
    <text fill="#4A4036" font-family="SourceSansPro-SemiBold, Source Sans Pro" font-size="12" font-weight="500">
      <tspan x="0" y="12">HEMISTICH 1</tspan>
    </text>
    <text fill="#4A4036" font-family="SourceSansPro-SemiBold, Source Sans Pro" font-size="12" font-weight="500">
      <tspan x="303" y="12">HEMISTICH 2</tspan>
    </text>
  </g>
</svg>
