<svg xmlns="http://www.w3.org/2000/svg" xmlns:xlink="http://www.w3.org/1999/xlink" width="19" height="14" viewBox="0 0 19 14">
  <defs>
    <polygon id="a" points=".292 20.686 5.032 13.606 9.742 20.686"/>
    <path id="b" d="M14.592,23.716 L14.592,20.716 C13.6719954,20.6559997 12.8920032,20.2760035 12.252,19.576 C11.6119968,18.8759965 11.292,18.0660046 11.292,17.146 C11.292,16.2259954 11.6119968,15.4160035 12.252,14.716 C12.8920032,14.0359966 13.6719954,13.6660003 14.592,13.606 L14.592,10.576 L15.162,10.576 L15.162,13.606 C16.1220048,13.6860004 16.901997,14.0659966 17.502,14.746 C18.1220031,15.4260034 18.432,16.2259954 18.432,17.146 C18.432,18.0860047 18.1220031,18.8959966 17.502,19.576 C16.901997,20.2560034 16.1220048,20.6359996 15.162,20.716 L15.162,23.716 L14.592,23.716 Z M14.592,14.176 C13.7719959,14.2760005 13.1220024,14.5959973 12.642,15.136 C12.1219974,15.7160029 11.862,16.3859962 11.862,17.146 C11.862,17.9260039 12.1219974,18.6059971 12.642,19.186 C13.1220024,19.7260027 13.7719959,20.0459995 14.592,20.146 L14.592,14.176 Z M17.862,17.146 C17.862,16.4059963 17.6020026,15.7460029 17.082,15.166 C16.5619974,14.5859971 15.9220038,14.2560004 15.162,14.176 L15.162,20.146 C15.9220038,20.0659996 16.5619974,19.7360029 17.082,19.156 C17.6020026,18.5759971 17.862,17.9060038 17.862,17.146 Z"/>
  </defs>
  <g fill="#000000" fill-rule="evenodd" transform="translate(0 -10)">
    <use xlink:href="#a"/>
    <use xlink:href="#a"/>
    <use xlink:href="#b"/>
    <use xlink:href="#b"/>
  </g>
</svg>
