<svg xmlns="http://www.w3.org/2000/svg" xmlns:xlink="http://www.w3.org/1999/xlink" width="19" height="8" viewBox="0 0 19 8">
  <defs>
    <polygon id="a" points=".797 7.686 5.537 .606 10.247 7.686"/>
    <path id="b" d="M18.937,4.146 C18.937,5.146005 18.5970034,5.9859966 17.917,6.666 C17.2169965,7.3660035 16.367005,7.716 15.367,7.716 C14.3869951,7.716 13.5470035,7.3660035 12.847,6.666 C12.1469965,5.9659965 11.797,5.1260049 11.797,4.146 C11.797,3.1659951 12.1469965,2.3260035 12.847,1.626 C13.5470035,0.9259965 14.3869951,0.576 15.367,0.576 C16.367005,0.576 17.2169965,0.9259965 17.917,1.626 C18.5970034,2.3060034 18.937,3.145995 18.937,4.146 Z M15.367,1.146 C14.5469959,1.146 13.8470029,1.4359971 13.267,2.016 C12.666997,2.616003 12.367,3.3259959 12.367,4.146 C12.367,4.9660041 12.666997,5.675997 13.267,6.276 C13.8470029,6.8560029 14.5469959,7.146 15.367,7.146 C16.2070042,7.146 16.9169971,6.8560029 17.497,6.276 C18.0770029,5.6959971 18.367,4.9860042 18.367,4.146 C18.367,3.3059958 18.0770029,2.5960029 17.497,2.016 C16.9169971,1.4359971 16.2070042,1.146 15.367,1.146 Z"/>
  </defs>
  <g fill="#000000" fill-rule="evenodd">
    <use xlink:href="#a"/>
    <use xlink:href="#b"/>
  </g>
</svg>
