<svg xmlns="http://www.w3.org/2000/svg" xmlns:xlink="http://www.w3.org/1999/xlink" width="21" height="10" viewBox="0 0 21 10">
  <defs>
    <path id="a" d="M20.937,17.146 C20.937,18.146005 20.5970034,18.9859966 19.917,19.666 C19.2169965,20.3660035 18.367005,20.716 17.367,20.716 C16.3869951,20.716 15.5470035,20.3660035 14.847,19.666 C14.1469965,18.9659965 13.797,18.1260049 13.797,17.146 C13.797,16.1659951 14.1469965,15.3260035 14.847,14.626 C15.5470035,13.9259965 16.3869951,13.576 17.367,13.576 C18.367005,13.576 19.2169965,13.9259965 19.917,14.626 C20.5970034,15.3060034 20.937,16.145995 20.937,17.146 Z M17.367,14.146 C16.5469959,14.146 15.8470029,14.4359971 15.267,15.016 C14.666997,15.616003 14.367,16.3259959 14.367,17.146 C14.367,17.9660041 14.666997,18.675997 15.267,19.276 C15.8470029,19.8560029 16.5469959,20.146 17.367,20.146 C18.2070042,20.146 18.9169971,19.8560029 19.497,19.276 C20.0770029,18.6959971 20.367,17.9860042 20.367,17.146 C20.367,16.3059958 20.0770029,15.5960029 19.497,15.016 C18.9169971,14.4359971 18.2070042,14.146 17.367,14.146 Z"/>
    <path id="b" d="M0.699,11.876 L1.601,11.876 L1.601,14.01 L1.568,15.11 C1.82466795,14.8679988 2.09233194,14.6608342 2.371,14.4885 C2.64966806,14.3161658 2.97599813,14.23 3.35,14.23 C3.91466949,14.23 4.32716537,14.4059982 4.5875,14.758 C4.84783464,15.1100018 4.978,15.6306632 4.978,16.32 L4.978,19.708 L4.076,19.708 L4.076,16.441 C4.076,15.9349975 3.99533414,15.5701678 3.834,15.3465 C3.67266586,15.1228322 3.41600176,15.011 3.064,15.011 C2.78533194,15.011 2.53966773,15.080666 2.327,15.22 C2.11433227,15.359334 1.87233469,15.5646653 1.601,15.836 L1.601,19.708 L0.699,19.708 L0.699,11.876 Z M6.287,17.046 C6.287,16.5986644 6.35483266,16.2008351 6.4905,15.8525 C6.62616735,15.5041649 6.80766553,15.2090012 7.035,14.967 C7.26233447,14.7249988 7.52449852,14.5416673 7.8215,14.417 C8.11850149,14.2923327 8.43199835,14.23 8.762,14.23 C9.09200165,14.23 9.40549852,14.2923327 9.7025,14.417 C9.99950149,14.5416673 10.2616655,14.7249988 10.489,14.967 C10.7163345,15.2090012 10.8978327,15.5041649 11.0335,15.8525 C11.1691673,16.2008351 11.237,16.5986644 11.237,17.046 C11.237,17.4860022 11.1691673,17.8801649 11.0335,18.2285 C10.8978327,18.5768351 10.7163345,18.8701655 10.489,19.1085 C10.2616655,19.3468345 9.99950149,19.5283327 9.7025,19.653 C9.40549852,19.7776673 9.09200165,19.84 8.762,19.84 C8.43199835,19.84 8.11850149,19.7776673 7.8215,19.653 C7.52449852,19.5283327 7.26233447,19.3468345 7.035,19.1085 C6.80766553,18.8701655 6.62616735,18.5768351 6.4905,18.2285 C6.35483266,17.8801649 6.287,17.4860022 6.287,17.046 Z M7.222,17.046 C7.222,17.3540015 7.2586663,17.6326654 7.332,17.882 C7.4053337,18.1313346 7.50983266,18.3458324 7.6455,18.5255 C7.78116735,18.7051676 7.94433238,18.8444995 8.135,18.9435 C8.32566762,19.0425005 8.53466553,19.092 8.762,19.092 C8.98933447,19.092 9.19833238,19.0425005 9.389,18.9435 C9.57966762,18.8444995 9.74283266,18.7051676 9.8785,18.5255 C10.0141673,18.3458324 10.1186663,18.1313346 10.192,17.882 C10.2653337,17.6326654 10.302,17.3540015 10.302,17.046 C10.302,16.7379985 10.2653337,16.4575013 10.192,16.2045 C10.1186663,15.9514987 10.0141673,15.7333342 9.8785,15.55 C9.74283266,15.3666657 9.57966762,15.2255005 9.389,15.1265 C9.19833238,15.0274995 8.98933447,14.978 8.762,14.978 C8.53466553,14.978 8.32566762,15.0274995 8.135,15.1265 C7.94433238,15.2255005 7.78116735,15.3666657 7.6455,15.55 C7.50983266,15.7333342 7.4053337,15.9514987 7.332,16.2045 C7.2586663,16.4575013 7.222,16.7379985 7.222,17.046 Z"/>
  </defs>
  <g fill="#000000" fill-rule="evenodd" transform="translate(0 -11)">
    <use xlink:href="#a"/>
    <use xlink:href="#a"/>
    <use xlink:href="#b"/>
    <use xlink:href="#b"/>
  </g>
</svg>
