<svg xmlns="http://www.w3.org/2000/svg" xmlns:xlink="http://www.w3.org/1999/xlink" width="22" height="14" viewBox="0 0 22 14">
  <defs>
    <path id="a" d="M18.097,13.716 L18.097,10.716 C17.1769954,10.6559997 16.3970032,10.2760035 15.757,9.576 C15.1169968,8.8759965 14.797,8.0660046 14.797,7.146 C14.797,6.2259954 15.1169968,5.4160035 15.757,4.716 C16.3970032,4.0359966 17.1769954,3.6660003 18.097,3.606 L18.097,0.576 L18.667,0.576 L18.667,3.606 C19.6270048,3.6860004 20.406997,4.0659966 21.007,4.746 C21.6270031,5.4260034 21.937,6.2259954 21.937,7.146 C21.937,8.0860047 21.6270031,8.8959966 21.007,9.576 C20.406997,10.2560034 19.6270048,10.6359996 18.667,10.716 L18.667,13.716 L18.097,13.716 Z M18.097,4.176 C17.2769959,4.2760005 16.6270024,4.5959973 16.147,5.136 C15.6269974,5.7160029 15.367,6.3859962 15.367,7.146 C15.367,7.9260039 15.6269974,8.6059971 16.147,9.186 C16.6270024,9.7260027 17.2769959,10.0459995 18.097,10.146 L18.097,4.176 Z M21.367,7.146 C21.367,6.4059963 21.1070026,5.7460029 20.587,5.166 C20.0669974,4.5859971 19.4270038,4.2560004 18.667,4.176 L18.667,10.146 C19.4270038,10.0659996 20.0669974,9.7360029 20.587,9.156 C21.1070026,8.5759971 21.367,7.9060038 21.367,7.146 Z"/>
    <path id="b" d="M1.336,11.182 L1.534,11.2315 C1.6073337,11.2498334 1.67699967,11.259 1.743,11.259 C2.05100154,11.259 2.30216569,11.1508344 2.4965,10.9345 C2.6908343,10.7181656 2.84299945,10.4450017 2.953,10.115 L3.074,9.719 L0.929,4.362 L1.864,4.362 L2.953,7.321 C3.03366707,7.55566784 3.11983287,7.80316537 3.2115,8.0635 C3.30316712,8.32383464 3.38933293,8.57866542 3.47,8.828 L3.514,8.828 C3.59466707,8.58599879 3.6716663,8.33300132 3.745,8.069 C3.8183337,7.80499868 3.8916663,7.55566784 3.965,7.321 L4.922,4.362 L5.802,4.362 L3.789,10.148 C3.69366619,10.4120013 3.58733392,10.6576655 3.47,10.885 C3.35266608,11.1123345 3.21333414,11.3084992 3.052,11.4735 C2.89066586,11.6385008 2.70733436,11.7686662 2.502,11.864 C2.29666564,11.9593338 2.05833469,12.007 1.787,12.007 C1.66233271,12.007 1.54866718,11.9978334 1.446,11.9795 C1.34333282,11.9611666 1.24800044,11.9336669 1.16,11.897 L1.336,11.182 Z M6.396,7.046 C6.396,6.59866443 6.46383265,6.20083508 6.5995,5.8525 C6.73516734,5.50416493 6.91666553,5.20900121 7.144,4.967 C7.37133447,4.72499879 7.63349851,4.54166729 7.9305,4.417 C8.22750148,4.29233271 8.54099835,4.23 8.871,4.23 C9.20100165,4.23 9.51449851,4.29233271 9.8115,4.417 C10.1085015,4.54166729 10.3706655,4.72499879 10.598,4.967 C10.8253345,5.20900121 11.0068327,5.50416493 11.1425,5.8525 C11.2781673,6.20083508 11.346,6.59866443 11.346,7.046 C11.346,7.4860022 11.2781673,7.88016493 11.1425,8.2285 C11.0068327,8.57683508 10.8253345,8.87016548 10.598,9.1085 C10.3706655,9.34683453 10.1085015,9.52833271 9.8115,9.653 C9.51449851,9.77766729 9.20100165,9.84 8.871,9.84 C8.54099835,9.84 8.22750148,9.77766729 7.9305,9.653 C7.63349851,9.52833271 7.37133447,9.34683453 7.144,9.1085 C6.91666553,8.87016548 6.73516734,8.57683508 6.5995,8.2285 C6.46383265,7.88016493 6.396,7.4860022 6.396,7.046 Z M7.331,7.046 C7.331,7.35400154 7.3676663,7.63266542 7.441,7.882 C7.5143337,8.13133458 7.61883265,8.34583244 7.7545,8.5255 C7.89016734,8.70516757 8.05333238,8.84449951 8.244,8.9435 C8.43466762,9.0425005 8.64366553,9.092 8.871,9.092 C9.09833447,9.092 9.30733238,9.0425005 9.498,8.9435 C9.68866762,8.84449951 9.85183265,8.70516757 9.9875,8.5255 C10.1231673,8.34583244 10.2276663,8.13133458 10.301,7.882 C10.3743337,7.63266542 10.411,7.35400154 10.411,7.046 C10.411,6.73799846 10.3743337,6.45750127 10.301,6.2045 C10.2276663,5.95149874 10.1231673,5.73333425 9.9875,5.55 C9.85183265,5.36666575 9.68866762,5.2255005 9.498,5.1265 C9.30733238,5.02749951 9.09833447,4.978 8.871,4.978 C8.64366553,4.978 8.43466762,5.02749951 8.244,5.1265 C8.05333238,5.2255005 7.89016734,5.36666575 7.7545,5.55 C7.61883265,5.73333425 7.5143337,5.95149874 7.441,6.2045 C7.3676663,6.45750127 7.331,6.73799846 7.331,7.046 Z"/>
  </defs>
  <g fill="#000000" fill-rule="evenodd">
    <use xlink:href="#a"/>
    <use xlink:href="#a"/>
    <use xlink:href="#b"/>
    <use xlink:href="#b"/>
  </g>
</svg>
