<svg xmlns="http://www.w3.org/2000/svg" xmlns:xlink="http://www.w3.org/1999/xlink" width="19" height="9" viewBox="0 0 19 9">
  <defs>
    <path id="a" d="M1.427,7.176 C1.0069979,6.7359978 0.797,6.1660035 0.797,5.466 C0.797,4.6459959 1.0769972,3.8660037 1.637,3.126 C2.1770027,2.3059959 2.846996,1.6760022 3.647,1.236 C4.7470055,0.5759967 5.8269947,0.246 6.887,0.246 C7.8070046,0.246 8.6169965,0.5359971 9.317,1.116 C9.9570032,1.6560027 10.277,2.2559967 10.277,2.916 C10.277,3.6760038 9.977003,4.4759958 9.377,5.316 C8.8569974,6.0960039 8.1570044,6.7459974 7.277,7.266 C6.1569944,7.9260033 5.0770052,8.256 4.037,8.256 C2.9569946,8.256 2.0870033,7.8960036 1.427,7.176 Z"/>
    <path id="b" d="M18.937,4.146 C18.937,5.146005 18.5970034,5.9859966 17.917,6.666 C17.2169965,7.3660035 16.367005,7.716 15.367,7.716 C14.3869951,7.716 13.5470035,7.3660035 12.847,6.666 C12.1469965,5.9659965 11.797,5.1260049 11.797,4.146 C11.797,3.1659951 12.1469965,2.3260035 12.847,1.626 C13.5470035,0.9259965 14.3869951,0.576 15.367,0.576 C16.367005,0.576 17.2169965,0.9259965 17.917,1.626 C18.5970034,2.3060034 18.937,3.145995 18.937,4.146 Z M15.367,1.146 C14.5469959,1.146 13.8470029,1.4359971 13.267,2.016 C12.666997,2.616003 12.367,3.3259959 12.367,4.146 C12.367,4.9660041 12.666997,5.675997 13.267,6.276 C13.8470029,6.8560029 14.5469959,7.146 15.367,7.146 C16.2070042,7.146 16.9169971,6.8560029 17.497,6.276 C18.0770029,5.6959971 18.367,4.9860042 18.367,4.146 C18.367,3.3059958 18.0770029,2.5960029 17.497,2.016 C16.9169971,1.4359971 16.2070042,1.146 15.367,1.146 Z"/>
  </defs>
  <g fill="#000000" fill-rule="evenodd">
    <use xlink:href="#a"/>
    <use xlink:href="#a"/>
    <use xlink:href="#b"/>
    <use xlink:href="#b"/>
  </g>
</svg>
