<svg xmlns="http://www.w3.org/2000/svg" xmlns:xlink="http://www.w3.org/1999/xlink" width="23" height="14" viewBox="0 0 23 14">
  <defs>
    <path id="a" d="M19.097,23.716 L19.097,20.716 C18.1769954,20.6559997 17.3970032,20.2760035 16.757,19.576 C16.1169968,18.8759965 15.797,18.0660046 15.797,17.146 C15.797,16.2259954 16.1169968,15.4160035 16.757,14.716 C17.3970032,14.0359966 18.1769954,13.6660003 19.097,13.606 L19.097,10.576 L19.667,10.576 L19.667,13.606 C20.6270048,13.6860004 21.406997,14.0659966 22.007,14.746 C22.6270031,15.4260034 22.937,16.2259954 22.937,17.146 C22.937,18.0860047 22.6270031,18.8959966 22.007,19.576 C21.406997,20.2560034 20.6270048,20.6359996 19.667,20.716 L19.667,23.716 L19.097,23.716 Z M19.097,14.176 C18.2769959,14.2760005 17.6270024,14.5959973 17.147,15.136 C16.6269974,15.7160029 16.367,16.3859962 16.367,17.146 C16.367,17.9260039 16.6269974,18.6059971 17.147,19.186 C17.6270024,19.7260027 18.2769959,20.0459995 19.097,20.146 L19.097,14.176 Z M22.367,17.146 C22.367,16.4059963 22.1070026,15.7460029 21.587,15.166 C21.0669974,14.5859971 20.4270038,14.2560004 19.667,14.176 L19.667,20.146 C20.4270038,20.0659996 21.0669974,19.7360029 21.587,19.156 C22.1070026,18.5759971 22.367,17.9060038 22.367,17.146 Z"/>
    <path id="b" d="M1.161,13.262 C0.98499912,13.262 0.836500605,13.2070005 0.7155,13.097 C0.594499395,12.9869994 0.534,12.8476675 0.534,12.679 C0.534,12.5029991 0.594499395,12.3618339 0.7155,12.2555 C0.836500605,12.1491661 0.98499912,12.096 1.161,12.096 C1.33700088,12.096 1.48549939,12.1491661 1.6065,12.2555 C1.7275006,12.3618339 1.788,12.5029991 1.788,12.679 C1.788,12.8476675 1.7275006,12.9869994 1.6065,13.097 C1.48549939,13.2070005 1.33700088,13.262 1.161,13.262 Z M0.699,14.362 L1.601,14.362 L1.601,19.708 L0.699,19.708 L0.699,14.362 Z M3.042,21.182 L3.24,21.2315 C3.3133337,21.2498334 3.38299967,21.259 3.449,21.259 C3.75700154,21.259 4.00816569,21.1508344 4.2025,20.9345 C4.3968343,20.7181656 4.54899945,20.4450016 4.659,20.115 L4.78,19.719 L2.635,14.362 L3.57,14.362 L4.659,17.321 C4.73966707,17.5556678 4.82583287,17.8031654 4.9175,18.0635 C5.00916712,18.3238346 5.09533293,18.5786654 5.176,18.828 L5.22,18.828 C5.30066707,18.5859988 5.3776663,18.3330013 5.451,18.069 C5.5243337,17.8049987 5.5976663,17.5556678 5.671,17.321 L6.628,14.362 L7.508,14.362 L5.495,20.148 C5.39966619,20.4120013 5.29333392,20.6576655 5.176,20.885 C5.05866608,21.1123345 4.91933414,21.3084992 4.758,21.4735 C4.59666586,21.6385008 4.41333436,21.7686662 4.208,21.864 C4.00266564,21.9593338 3.76433469,22.007 3.493,22.007 C3.36833271,22.007 3.25466718,21.9978334 3.152,21.9795 C3.04933282,21.9611666 2.95400044,21.9336668 2.866,21.897 L3.042,21.182 Z M8.058,18.322 C8.058,17.7353304 8.32016404,17.2861682 8.8445,16.9745 C9.36883595,16.6628318 10.2029943,16.4446673 11.347,16.32 C11.347,16.1513325 11.3305002,15.9863341 11.2975,15.825 C11.2644998,15.6636659 11.2058338,15.5206673 11.1215,15.396 C11.0371662,15.2713327 10.925334,15.1705004 10.786,15.0935 C10.646666,15.0164996 10.4670011,14.978 10.247,14.978 C9.93166509,14.978 9.640168,15.0366661 9.3725,15.154 C9.10483199,15.2713339 8.86466773,15.4033326 8.652,15.55 L8.289,14.923 C8.53833458,14.7616659 8.84266487,14.6058341 9.202,14.4555 C9.56133513,14.3051659 9.95733117,14.23 10.39,14.23 C11.0426699,14.23 11.5156652,14.4298313 11.809,14.8295 C12.1023348,15.2291687 12.249,15.7626633 12.249,16.43 L12.249,19.708 L11.501,19.708 L11.424,19.07 L11.402,19.07 C11.145332,19.2826677 10.8685015,19.4641659 10.5715,19.6145 C10.2744985,19.7648341 9.96100165,19.84 9.631,19.84 C9.17633106,19.84 8.80050148,19.7080013 8.5035,19.444 C8.20649851,19.1799987 8.058,18.8060024 8.058,18.322 Z M8.949,18.256 C8.949,18.5640015 9.03883243,18.7839993 9.2185,18.916 C9.39816756,19.0480007 9.61999868,19.114 9.884,19.114 C10.1406679,19.114 10.3844988,19.0535006 10.6155,18.9325 C10.8465012,18.8114994 11.090332,18.6336678 11.347,18.399 L11.347,16.914 C10.8996644,16.972667 10.5220015,17.0423329 10.214,17.123 C9.90599846,17.2036671 9.65850093,17.2989994 9.4715,17.409 C9.28449906,17.5190005 9.15066707,17.6454993 9.07,17.7885 C8.98933293,17.9315007 8.949,18.0873325 8.949,18.256 Z"/>
  </defs>
  <g fill="#000000" fill-rule="evenodd" transform="translate(0 -10)">
    <use xlink:href="#a"/>
    <use xlink:href="#a"/>
    <use xlink:href="#b"/>
    <use xlink:href="#b"/>
  </g>
</svg>
