<svg xmlns="http://www.w3.org/2000/svg" xmlns:xlink="http://www.w3.org/1999/xlink" width="23" height="14" viewBox="0 0 23 14">
  <defs>
    <path id="a" d="M19.097,13.716 L19.097,10.716 C18.1769954,10.6559997 17.3970032,10.2760035 16.757,9.576 C16.1169968,8.8759965 15.797,8.0660046 15.797,7.146 C15.797,6.2259954 16.1169968,5.4160035 16.757,4.716 C17.3970032,4.0359966 18.1769954,3.6660003 19.097,3.606 L19.097,0.576 L19.667,0.576 L19.667,3.606 C20.6270048,3.6860004 21.406997,4.0659966 22.007,4.746 C22.6270031,5.4260034 22.937,6.2259954 22.937,7.146 C22.937,8.0860047 22.6270031,8.8959966 22.007,9.576 C21.406997,10.2560034 20.6270048,10.6359996 19.667,10.716 L19.667,13.716 L19.097,13.716 Z M19.097,4.176 C18.2769959,4.2760005 17.6270024,4.5959973 17.147,5.136 C16.6269974,5.7160029 16.367,6.3859962 16.367,7.146 C16.367,7.9260039 16.6269974,8.6059971 17.147,9.186 C17.6270024,9.7260027 18.2769959,10.0459995 19.097,10.146 L19.097,4.176 Z M22.367,7.146 C22.367,6.4059963 22.1070026,5.7460029 21.587,5.166 C21.0669974,4.5859971 20.4270038,4.2560004 19.667,4.176 L19.667,10.146 C20.4270038,10.0659996 21.0669974,9.7360029 21.587,9.156 C22.1070026,8.5759971 22.367,7.9060038 22.367,7.146 Z"/>
    <path id="b" d="M1.161,3.262 C0.98499912,3.262 0.836500605,3.20700055 0.7155,3.097 C0.594499395,2.98699945 0.534,2.84766751 0.534,2.679 C0.534,2.50299912 0.594499395,2.36183386 0.7155,2.2555 C0.836500605,2.14916613 0.98499912,2.096 1.161,2.096 C1.33700088,2.096 1.48549939,2.14916613 1.6065,2.2555 C1.7275006,2.36183386 1.788,2.50299912 1.788,2.679 C1.788,2.84766751 1.7275006,2.98699945 1.6065,3.097 C1.48549939,3.20700055 1.33700088,3.262 1.161,3.262 Z M0.699,4.362 L1.601,4.362 L1.601,9.708 L0.699,9.708 L0.699,4.362 Z M3.042,11.182 L3.24,11.2315 C3.3133337,11.2498334 3.38299967,11.259 3.449,11.259 C3.75700154,11.259 4.00816569,11.1508344 4.2025,10.9345 C4.3968343,10.7181656 4.54899945,10.4450016 4.659,10.115 L4.78,9.719 L2.635,4.362 L3.57,4.362 L4.659,7.321 C4.73966707,7.55566784 4.82583287,7.80316536 4.9175,8.0635 C5.00916712,8.32383463 5.09533293,8.57866542 5.176,8.828 L5.22,8.828 C5.30066707,8.58599879 5.3776663,8.33300132 5.451,8.069 C5.5243337,7.80499868 5.5976663,7.55566784 5.671,7.321 L6.628,4.362 L7.508,4.362 L5.495,10.148 C5.39966619,10.4120013 5.29333392,10.6576655 5.176,10.885 C5.05866608,11.1123345 4.91933414,11.3084992 4.758,11.4735 C4.59666586,11.6385008 4.41333436,11.7686662 4.208,11.864 C4.00266564,11.9593338 3.76433469,12.007 3.493,12.007 C3.36833271,12.007 3.25466718,11.9978334 3.152,11.9795 C3.04933282,11.9611666 2.95400044,11.9336668 2.866,11.897 L3.042,11.182 Z M8.058,8.322 C8.058,7.7353304 8.32016404,7.28616822 8.8445,6.9745 C9.36883595,6.66283177 10.2029943,6.44466729 11.347,6.32 C11.347,6.15133249 11.3305002,5.98633414 11.2975,5.825 C11.2644998,5.66366586 11.2058338,5.52066729 11.1215,5.396 C11.0371662,5.27133271 10.925334,5.17050038 10.786,5.0935 C10.646666,5.01649961 10.4670011,4.978 10.247,4.978 C9.93166509,4.978 9.640168,5.03666608 9.3725,5.154 C9.10483199,5.27133392 8.86466773,5.4033326 8.652,5.55 L8.289,4.923 C8.53833458,4.76166586 8.84266487,4.60583408 9.202,4.4555 C9.56133513,4.30516591 9.95733117,4.23 10.39,4.23 C11.0426699,4.23 11.5156652,4.42983133 11.809,4.8295 C12.1023348,5.22916866 12.249,5.76266333 12.249,6.43 L12.249,9.708 L11.501,9.708 L11.424,9.07 L11.402,9.07 C11.145332,9.28266773 10.8685015,9.46416591 10.5715,9.6145 C10.2744985,9.76483408 9.96100165,9.84 9.631,9.84 C9.17633106,9.84 8.80050148,9.70800132 8.5035,9.444 C8.20649851,9.17999868 8.058,8.80600242 8.058,8.322 Z M8.949,8.256 C8.949,8.56400154 9.03883243,8.78399934 9.2185,8.916 C9.39816756,9.04800066 9.61999868,9.114 9.884,9.114 C10.1406679,9.114 10.3844988,9.0535006 10.6155,8.9325 C10.8465012,8.81149939 11.090332,8.63366784 11.347,8.399 L11.347,6.914 C10.8996644,6.97266696 10.5220015,7.04233293 10.214,7.123 C9.90599846,7.20366707 9.65850093,7.29899945 9.4715,7.409 C9.28449906,7.51900055 9.15066707,7.64549928 9.07,7.7885 C8.98933293,7.93150071 8.949,8.08733249 8.949,8.256 Z"/>
  </defs>
  <g fill="#000000" fill-rule="evenodd">
    <use xlink:href="#a"/>
    <use xlink:href="#a"/>
    <use xlink:href="#b"/>
    <use xlink:href="#b"/>
  </g>
</svg>
