<svg xmlns="http://www.w3.org/2000/svg" width="17" height="17" viewBox="0 0 17 17">
  <path fill="#000000" fill-rule="evenodd" d="M15.7012528,8.2 C15.7012528,6.20465669 14.9751113,4.44167432 13.5228067,2.911 C12.0431001,1.43499262 10.2756993,0.697 8.22055119,0.697 C6.13800114,0.697 4.35689953,1.43499262 2.87719292,2.911 C1.42488828,4.44167432 0.698746851,6.20465669 0.698746851,8.2 C0.698746851,10.1953433 1.42488828,11.9583257 2.87719292,13.489 C4.35689953,14.9650074 6.13800114,15.703 8.22055119,15.703 C10.2756993,15.703 12.0431001,14.9650074 13.5228067,13.489 C14.9751113,11.9583257 15.7012528,10.1953433 15.7012528,8.2 Z M8.22055119,16.4 C5.94618732,16.4 4.00067633,15.5936747 2.38395984,13.981 C0.794645335,12.3956587 0,10.468678 0,8.2 C0,5.93132199 0.794645335,4.00434126 2.38395984,2.419 C4.00067633,0.80632527 5.94618732,0 8.22055119,0 C10.4675131,0 12.3993233,0.80632527 14.0160398,2.419 C15.6053543,4.00434126 16.3999996,5.93132199 16.3999996,8.2 C16.3999996,10.468678 15.6053543,12.3956587 14.0160398,13.981 C12.3993233,15.5936747 10.4675131,16.4 8.22055119,16.4 Z M7.53393939,3.59999847 L7.53393939,4.66168679 C7.52363636,4.93441406 7.51333333,5.19740107 7.49272727,5.46038808 L4.55636364,5.46038808 L4.55636364,6.45389458 L7.4,6.45389458 C7.27636364,7.46688159 7.06,8.35324523 6.75090909,9.09350497 C6.2769697,10.1551933 5.36,11.0318167 4,11.7331154 L4.5769697,12.5999985 C5.95757576,11.9571413 6.9569697,11.0318167 7.57515152,9.83376471 C8.01818182,8.92792055 8.32727273,7.79805042 8.49212121,6.45389458 L11.4078788,6.45389458 C11.3563636,8.58701146 11.2430303,9.9798686 11.0781818,10.632466 C10.9133333,11.2558426 10.5733333,11.5772712 10.0478788,11.5772712 C9.65636364,11.5772712 9.25454545,11.5577907 8.82181818,11.5383102 L9.11030303,12.5220764 L10.5733333,12.5220764 C11.1193939,12.4831154 11.5109091,12.2688296 11.7581818,11.869479 C12.0054545,11.4409076 12.1909091,10.7006478 12.2939394,9.64869977 C12.3969697,8.58701146 12.4587879,7.19415432 12.5,5.46038808 L8.58484848,5.46038808 C8.60545455,5.20714133 8.61575758,4.93441406 8.62606061,4.66168679 L8.62606061,3.59999847 L7.53393939,3.59999847 Z"/>
</svg>
