<svg xmlns="http://www.w3.org/2000/svg" xmlns:xlink="http://www.w3.org/1999/xlink" width="22" height="9" viewBox="0 0 22 9">
  <defs>
    <path id="a" d="M21.937,17.146 C21.937,18.146005 21.5970034,18.9859966 20.917,19.666 C20.2169965,20.3660035 19.367005,20.716 18.367,20.716 C17.3869951,20.716 16.5470035,20.3660035 15.847,19.666 C15.1469965,18.9659965 14.797,18.1260049 14.797,17.146 C14.797,16.1659951 15.1469965,15.3260035 15.847,14.626 C16.5470035,13.9259965 17.3869951,13.576 18.367,13.576 C19.367005,13.576 20.2169965,13.9259965 20.917,14.626 C21.5970034,15.3060034 21.937,16.145995 21.937,17.146 Z M18.367,14.146 C17.5469959,14.146 16.8470029,14.4359971 16.267,15.016 C15.666997,15.616003 15.367,16.3259959 15.367,17.146 C15.367,17.9660041 15.666997,18.675997 16.267,19.276 C16.8470029,19.8560029 17.5469959,20.146 18.367,20.146 C19.2070042,20.146 19.9169971,19.8560029 20.497,19.276 C21.0770029,18.6959971 21.367,17.9860042 21.367,17.146 C21.367,16.3059958 21.0770029,15.5960029 20.497,15.016 C19.9169971,14.4359971 19.2070042,14.146 18.367,14.146 Z"/>
    <path id="b" d="M1.336,21.182 L1.534,21.2315 C1.6073337,21.2498334 1.67699967,21.259 1.743,21.259 C2.05100154,21.259 2.3021657,21.1508344 2.4965,20.9345 C2.69083431,20.7181656 2.84299945,20.4450017 2.953,20.115 L3.074,19.719 L0.929,14.362 L1.864,14.362 L2.953,17.321 C3.03366707,17.5556678 3.11983288,17.8031654 3.2115,18.0635 C3.30316713,18.3238346 3.38933293,18.5786654 3.47,18.828 L3.514,18.828 C3.59466707,18.5859988 3.6716663,18.3330013 3.745,18.069 C3.8183337,17.8049987 3.8916663,17.5556678 3.965,17.321 L4.922,14.362 L5.802,14.362 L3.789,20.148 C3.69366619,20.4120013 3.58733392,20.6576655 3.47,20.885 C3.35266608,21.1123345 3.21333414,21.3084992 3.052,21.4735 C2.89066586,21.6385008 2.70733436,21.7686662 2.502,21.864 C2.29666564,21.9593338 2.05833469,22.007 1.787,22.007 C1.66233271,22.007 1.54866718,21.9978334 1.446,21.9795 C1.34333282,21.9611666 1.24800044,21.9336669 1.16,21.897 L1.336,21.182 Z M6.396,17.046 C6.396,16.5986644 6.46383266,16.2008351 6.5995,15.8525 C6.73516735,15.5041649 6.91666553,15.2090012 7.144,14.967 C7.37133447,14.7249988 7.63349852,14.5416673 7.9305,14.417 C8.22750149,14.2923327 8.54099835,14.23 8.871,14.23 C9.20100165,14.23 9.51449852,14.2923327 9.8115,14.417 C10.1085015,14.5416673 10.3706655,14.7249988 10.598,14.967 C10.8253345,15.2090012 11.0068327,15.5041649 11.1425,15.8525 C11.2781673,16.2008351 11.346,16.5986644 11.346,17.046 C11.346,17.4860022 11.2781673,17.8801649 11.1425,18.2285 C11.0068327,18.5768351 10.8253345,18.8701655 10.598,19.1085 C10.3706655,19.3468345 10.1085015,19.5283327 9.8115,19.653 C9.51449852,19.7776673 9.20100165,19.84 8.871,19.84 C8.54099835,19.84 8.22750149,19.7776673 7.9305,19.653 C7.63349852,19.5283327 7.37133447,19.3468345 7.144,19.1085 C6.91666553,18.8701655 6.73516735,18.5768351 6.5995,18.2285 C6.46383266,17.8801649 6.396,17.4860022 6.396,17.046 Z M7.331,17.046 C7.331,17.3540015 7.3676663,17.6326654 7.441,17.882 C7.5143337,18.1313346 7.61883266,18.3458324 7.7545,18.5255 C7.89016735,18.7051676 8.05333238,18.8444995 8.244,18.9435 C8.43466762,19.0425005 8.64366553,19.092 8.871,19.092 C9.09833447,19.092 9.30733238,19.0425005 9.498,18.9435 C9.68866762,18.8444995 9.85183266,18.7051676 9.9875,18.5255 C10.1231673,18.3458324 10.2276663,18.1313346 10.301,17.882 C10.3743337,17.6326654 10.411,17.3540015 10.411,17.046 C10.411,16.7379985 10.3743337,16.4575013 10.301,16.2045 C10.2276663,15.9514987 10.1231673,15.7333343 9.9875,15.55 C9.85183266,15.3666658 9.68866762,15.2255005 9.498,15.1265 C9.30733238,15.0274995 9.09833447,14.978 8.871,14.978 C8.64366553,14.978 8.43466762,15.0274995 8.244,15.1265 C8.05333238,15.2255005 7.89016735,15.3666658 7.7545,15.55 C7.61883266,15.7333343 7.5143337,15.9514987 7.441,16.2045 C7.3676663,16.4575013 7.331,16.7379985 7.331,17.046 Z"/>
  </defs>
  <g fill="#000000" fill-rule="evenodd" transform="translate(0 -13)">
    <use xlink:href="#a"/>
    <use xlink:href="#a"/>
    <use xlink:href="#b"/>
    <use xlink:href="#b"/>
  </g>
</svg>
