<svg xmlns="http://www.w3.org/2000/svg" xmlns:xlink="http://www.w3.org/1999/xlink" width="26" height="13" viewBox="0 0 26 13">
  <defs>
    <path id="a" d="M24.762,6.427 C24.762,4.9669927 24.2320053,3.6770056 23.172,2.557 C22.0919946,1.4769946 20.8020075,0.937 19.302,0.937 C17.7819924,0.937 16.4820054,1.4769946 15.402,2.557 C14.3419947,3.6770056 13.812,4.9669927 13.812,6.427 C13.812,7.8870073 14.3419947,9.1769944 15.402,10.297 C16.4820054,11.3770054 17.7819924,11.917 19.302,11.917 C20.8020075,11.917 22.0919946,11.3770054 23.172,10.297 C24.2320053,9.1769944 24.762,7.8870073 24.762,6.427 Z M19.302,12.427 C17.6419917,12.427 16.2220059,11.8370059 15.042,10.657 C13.8819942,9.4969942 13.302,8.0870083 13.302,6.427 C13.302,4.7669917 13.8819942,3.3570058 15.042,2.197 C16.2220059,1.0169941 17.6419917,0.427 19.302,0.427 C20.9420082,0.427 22.3519941,1.0169941 23.532,2.197 C24.6920058,3.3570058 25.272,4.7669917 25.272,6.427 C25.272,8.0870083 24.6920058,9.4969942 23.532,10.657 C22.3519941,11.8370059 20.9420082,12.427 19.302,12.427 Z M14.952,6.457 C15.1320009,5.9369974 15.421998,5.4570022 15.822,5.017 C16.222002,4.5769978 16.6769975,4.19200165 17.187,3.862 C17.6970026,3.53199835 18.251997,3.2770009 18.852,3.097 C19.452003,2.9169991 20.051997,2.827 20.652,2.827 C21.252003,2.827 21.7769978,2.926999 22.227,3.127 C22.6770023,3.327001 23.0369987,3.5969983 23.307,3.937 C23.5770014,4.2770017 23.7419997,4.67199775 23.802,5.122 C23.8620003,5.57200225 23.8020009,6.0469975 23.622,6.547 C23.4419991,7.0670026 23.157002,7.5469978 22.767,7.987 C22.3769981,8.4270022 21.9220026,8.81199835 21.402,9.142 C20.8819974,9.47200165 20.322003,9.7269991 19.722,9.907 C19.121997,10.0870009 18.522003,10.177 17.922,10.177 C17.321997,10.177 16.7970023,10.077001 16.347,9.877 C15.8969978,9.676999 15.5420013,9.4070017 15.282,9.067 C15.0219987,8.7269983 14.8570004,8.33200225 14.787,7.882 C14.7169997,7.43199775 14.7719991,6.9570025 14.952,6.457 Z"/>
    <path id="b" d="M0.204,1.595 L1.106,1.595 L1.106,3.729 L1.073,4.829 C1.32966795,4.58699879 1.59733194,4.3798342 1.876,4.2075 C2.15466806,4.03516581 2.48099813,3.949 2.855,3.949 C3.41966949,3.949 3.83216537,4.12499824 4.0925,4.477 C4.35283464,4.82900176 4.483,5.34966322 4.483,6.039 L4.483,9.427 L3.581,9.427 L3.581,6.16 C3.581,5.65399747 3.50033414,5.28916779 3.339,5.0655 C3.17766586,4.84183222 2.92100176,4.73 2.569,4.73 C2.29033194,4.73 2.04466773,4.79966597 1.832,4.939 C1.61933227,5.07833403 1.37733469,5.28366531 1.106,5.555 L1.106,9.427 L0.204,9.427 L0.204,1.595 Z M5.792,6.765 C5.792,6.31766443 5.85983266,5.91983508 5.9955,5.5715 C6.13116735,5.22316493 6.31266553,4.92800121 6.54,4.686 C6.76733447,4.44399879 7.02949852,4.26066729 7.3265,4.136 C7.62350149,4.01133271 7.93699835,3.949 8.267,3.949 C8.59700165,3.949 8.91049852,4.01133271 9.2075,4.136 C9.50450149,4.26066729 9.76666553,4.44399879 9.994,4.686 C10.2213345,4.92800121 10.4028327,5.22316493 10.5385,5.5715 C10.6741673,5.91983508 10.742,6.31766443 10.742,6.765 C10.742,7.2050022 10.6741673,7.59916493 10.5385,7.9475 C10.4028327,8.29583508 10.2213345,8.58916548 9.994,8.8275 C9.76666553,9.06583453 9.50450149,9.24733271 9.2075,9.372 C8.91049852,9.49666729 8.59700165,9.559 8.267,9.559 C7.93699835,9.559 7.62350149,9.49666729 7.3265,9.372 C7.02949852,9.24733271 6.76733447,9.06583453 6.54,8.8275 C6.31266553,8.58916548 6.13116735,8.29583508 5.9955,7.9475 C5.85983266,7.59916493 5.792,7.2050022 5.792,6.765 Z M6.727,6.765 C6.727,7.07300154 6.7636663,7.35166542 6.837,7.601 C6.9103337,7.85033458 7.01483266,8.06483244 7.1505,8.2445 C7.28616735,8.42416757 7.44933238,8.56349951 7.64,8.6625 C7.83066762,8.7615005 8.03966553,8.811 8.267,8.811 C8.49433447,8.811 8.70333238,8.7615005 8.894,8.6625 C9.08466762,8.56349951 9.24783266,8.42416757 9.3835,8.2445 C9.51916735,8.06483244 9.6236663,7.85033458 9.697,7.601 C9.7703337,7.35166542 9.807,7.07300154 9.807,6.765 C9.807,6.45699846 9.7703337,6.17650127 9.697,5.9235 C9.6236663,5.67049874 9.51916735,5.45233425 9.3835,5.269 C9.24783266,5.08566575 9.08466762,4.9445005 8.894,4.8455 C8.70333238,4.74649951 8.49433447,4.697 8.267,4.697 C8.03966553,4.697 7.83066762,4.74649951 7.64,4.8455 C7.44933238,4.9445005 7.28616735,5.08566575 7.1505,5.269 C7.01483266,5.45233425 6.9103337,5.67049874 6.837,5.9235 C6.7636663,6.17650127 6.727,6.45699846 6.727,6.765 Z"/>
  </defs>
  <g fill="#000000" fill-rule="evenodd">
    <use xlink:href="#a"/>
    <use xlink:href="#b"/>
  </g>
</svg>
