<svg xmlns="http://www.w3.org/2000/svg" width="10" height="18" viewBox="0 0 10 18">
  <path fill="#000000" fill-rule="evenodd" d="M4.51,17.958 L4.51,13.858 C3.25266038,13.7759996 2.18667104,13.2566714 1.312,12.3 C0.43732896,11.3433286 0,10.2363396 0,8.979 C0,7.72166038 0.43732896,6.61467145 1.312,5.658 C2.18667104,4.72866202 3.25266038,4.22300041 4.51,4.141 L4.51,0 L5.289,0 L5.289,4.141 C6.60100656,4.25033388 7.6669959,4.76966202 8.487,5.699 C9.33433757,6.62833798 9.758,7.72166038 9.758,8.979 C9.758,10.2636731 9.33433757,11.370662 8.487,12.3 C7.6669959,13.229338 6.60100656,13.7486661 5.289,13.858 L5.289,17.958 L4.51,17.958 Z M4.51,4.92 C3.38932773,5.05666735 2.50100328,5.49399631 1.845,6.232 C1.13432978,7.02467063 0.779,7.94032814 0.779,8.979 C0.779,10.0450053 1.13432978,10.9743294 1.845,11.767 C2.50100328,12.5050037 3.38932773,12.9423327 4.51,13.079 L4.51,4.92 Z M8.979,8.979 C8.979,7.96766161 8.62367022,7.06567063 7.913,6.273 C7.20232978,5.48032937 6.32767186,5.02933388 5.289,4.92 L5.289,13.079 C6.32767186,12.9696661 7.20232978,12.5186706 7.913,11.726 C8.62367022,10.9333294 8.979,10.0176719 8.979,8.979 Z"/>
</svg>
