<svg xmlns="http://www.w3.org/2000/svg" xmlns:xlink="http://www.w3.org/1999/xlink" width="25" height="9" viewBox="0 0 25 9">
  <defs>
    <path id="a" d="M15.427,7.176 C15.0069979,6.7359978 14.797,6.1660035 14.797,5.466 C14.797,4.6459959 15.0769972,3.8660037 15.637,3.126 C16.1770027,2.3059959 16.846996,1.6760022 17.647,1.236 C18.7470055,0.5759967 19.8269947,0.246 20.887,0.246 C21.8070046,0.246 22.6169965,0.5359971 23.317,1.116 C23.9570032,1.6560027 24.277,2.2559967 24.277,2.916 C24.277,3.6760038 23.977003,4.4759958 23.377,5.316 C22.8569974,6.0960039 22.1570044,6.7459974 21.277,7.266 C20.1569944,7.9260033 19.0770052,8.256 18.037,8.256 C16.9569946,8.256 16.0870033,7.8960036 15.427,7.176 Z"/>
    <path id="b" d="M1.336,8.182 L1.534,8.2315 C1.6073337,8.24983342 1.67699967,8.259 1.743,8.259 C2.05100154,8.259 2.30216569,8.15083441 2.4965,7.9345 C2.6908343,7.71816558 2.84299945,7.44500165 2.953,7.115 L3.074,6.719 L0.929,1.362 L1.864,1.362 L2.953,4.321 C3.03366707,4.55566784 3.11983287,4.80316536 3.2115,5.0635 C3.30316712,5.32383463 3.38933293,5.57866542 3.47,5.828 L3.514,5.828 C3.59466707,5.58599879 3.6716663,5.33300132 3.745,5.069 C3.8183337,4.80499868 3.8916663,4.55566784 3.965,4.321 L4.922,1.362 L5.802,1.362 L3.789,7.148 C3.69366619,7.41200132 3.58733392,7.65766553 3.47,7.885 C3.35266608,8.11233447 3.21333414,8.30849917 3.052,8.4735 C2.89066586,8.63850082 2.70733436,8.76866619 2.502,8.864 C2.29666564,8.95933381 2.05833469,9.007 1.787,9.007 C1.66233271,9.007 1.54866718,8.99783342 1.446,8.9795 C1.34333282,8.96116657 1.24800044,8.93366685 1.16,8.897 L1.336,8.182 Z M6.396,4.046 C6.396,3.59866443 6.46383265,3.20083507 6.5995,2.8525 C6.73516734,2.50416492 6.91666553,2.20900121 7.144,1.967 C7.37133447,1.72499879 7.63349851,1.54166729 7.9305,1.417 C8.22750148,1.29233271 8.54099835,1.23 8.871,1.23 C9.20100165,1.23 9.51449851,1.29233271 9.8115,1.417 C10.1085015,1.54166729 10.3706655,1.72499879 10.598,1.967 C10.8253345,2.20900121 11.0068327,2.50416492 11.1425,2.8525 C11.2781673,3.20083507 11.346,3.59866443 11.346,4.046 C11.346,4.4860022 11.2781673,4.88016492 11.1425,5.2285 C11.0068327,5.57683507 10.8253345,5.87016547 10.598,6.1085 C10.3706655,6.34683452 10.1085015,6.52833271 9.8115,6.653 C9.51449851,6.77766729 9.20100165,6.84 8.871,6.84 C8.54099835,6.84 8.22750148,6.77766729 7.9305,6.653 C7.63349851,6.52833271 7.37133447,6.34683452 7.144,6.1085 C6.91666553,5.87016547 6.73516734,5.57683507 6.5995,5.2285 C6.46383265,4.88016492 6.396,4.4860022 6.396,4.046 Z M7.331,4.046 C7.331,4.35400154 7.3676663,4.63266542 7.441,4.882 C7.5143337,5.13133458 7.61883265,5.34583243 7.7545,5.5255 C7.89016734,5.70516756 8.05333238,5.8444995 8.244,5.9435 C8.43466762,6.04250049 8.64366553,6.092 8.871,6.092 C9.09833447,6.092 9.30733238,6.04250049 9.498,5.9435 C9.68866762,5.8444995 9.85183265,5.70516756 9.9875,5.5255 C10.1231673,5.34583243 10.2276663,5.13133458 10.301,4.882 C10.3743337,4.63266542 10.411,4.35400154 10.411,4.046 C10.411,3.73799846 10.3743337,3.45750126 10.301,3.2045 C10.2276663,2.95149873 10.1231673,2.73333425 9.9875,2.55 C9.85183265,2.36666575 9.68866762,2.22550049 9.498,2.1265 C9.30733238,2.0274995 9.09833447,1.978 8.871,1.978 C8.64366553,1.978 8.43466762,2.0274995 8.244,2.1265 C8.05333238,2.22550049 7.89016734,2.36666575 7.7545,2.55 C7.61883265,2.73333425 7.5143337,2.95149873 7.441,3.2045 C7.3676663,3.45750126 7.331,3.73799846 7.331,4.046 Z"/>
  </defs>
  <g fill="#000000" fill-rule="evenodd">
    <use xlink:href="#a"/>
    <use xlink:href="#b"/>
  </g>
</svg>
