<svg xmlns="http://www.w3.org/2000/svg" width="13" height="11" viewBox="0 0 13 11">
  <path fill="#000000" fill-rule="evenodd" d="M0.861,9.471 C0.28699713,8.86966366 0,8.09067145 0,7.134 C0,6.01332773 0.38266284,4.94733839 1.148,3.936 C1.88600369,2.81532773 2.8016612,1.95433634 3.895,1.353 C5.39834085,0.45099549 6.87432609,0 8.323,0 C9.58033962,0 10.6873285,0.39632937 11.644,1.189 C12.518671,1.92700369 12.956,2.74699549 12.956,3.649 C12.956,4.68767186 12.5460041,5.78099426 11.726,6.929 C11.0153298,7.99500533 10.0586727,8.88332978 8.856,9.594 C7.32532568,10.4960045 5.84934044,10.947 4.428,10.947 C2.95199262,10.947 1.76300451,10.4550049 0.861,9.471 Z"/>
</svg>
