<svg xmlns="http://www.w3.org/2000/svg" xmlns:xlink="http://www.w3.org/1999/xlink" width="22" height="9" viewBox="0 0 22 9">
  <defs>
    <path id="a" d="M1.427,7.176 C1.0069979,6.7359978 0.797,6.1660035 0.797,5.466 C0.797,4.6459959 1.0769972,3.8660037 1.637,3.126 C2.1770027,2.3059959 2.846996,1.6760022 3.647,1.236 C4.7470055,0.5759967 5.8269947,0.246 6.887,0.246 C7.8070046,0.246 8.6169965,0.5359971 9.317,1.116 C9.9570032,1.6560027 10.277,2.2559967 10.277,2.916 C10.277,3.6760038 9.977003,4.4759958 9.377,5.316 C8.8569974,6.0960039 8.1570044,6.7459974 7.277,7.266 C6.1569944,7.9260033 5.0770052,8.256 4.037,8.256 C2.9569946,8.256 2.0870033,7.8960036 1.427,7.176 Z"/>
    <path id="b" d="M11.797,7.686 L16.537,0.606 L21.247,7.686 L11.797,7.686 Z M16.537,1.656 L12.877,7.116 L20.167,7.116 L16.537,1.656 Z"/>
  </defs>
  <g fill="#000000" fill-rule="evenodd">
    <use xlink:href="#a"/>
    <use xlink:href="#b"/>
  </g>
</svg>
