<svg xmlns="http://www.w3.org/2000/svg" xmlns:xlink="http://www.w3.org/1999/xlink" width="27" height="10" viewBox="0 0 27 10">
  <defs>
    <path id="a" d="M17.427,20.176 C17.0069979,19.7359978 16.797,19.1660035 16.797,18.466 C16.797,17.6459959 17.0769972,16.8660037 17.637,16.126 C18.1770027,15.3059959 18.846996,14.6760022 19.647,14.236 C20.7470055,13.5759967 21.8269947,13.246 22.887,13.246 C23.8070046,13.246 24.6169965,13.5359971 25.317,14.116 C25.9570032,14.6560027 26.277,15.2559967 26.277,15.916 C26.277,16.6760038 25.977003,17.4759958 25.377,18.316 C24.8569974,19.0960039 24.1570044,19.7459974 23.277,20.266 C22.1569944,20.9260033 21.0770052,21.256 20.037,21.256 C18.9569946,21.256 18.0870033,20.8960036 17.427,20.176 Z"/>
    <path id="b" d="M1.336,21.182 L1.534,21.2315 C1.6073337,21.2498334 1.67699967,21.259 1.743,21.259 C2.05100154,21.259 2.30216569,21.1508344 2.4965,20.9345 C2.6908343,20.7181656 2.84299945,20.4450016 2.953,20.115 L3.074,19.719 L0.929,14.362 L1.864,14.362 L2.953,17.321 C3.03366707,17.5556678 3.11983287,17.8031654 3.2115,18.0635 C3.30316712,18.3238346 3.38933293,18.5786654 3.47,18.828 L3.514,18.828 C3.59466707,18.5859988 3.6716663,18.3330013 3.745,18.069 C3.8183337,17.8049987 3.8916663,17.5556678 3.965,17.321 L4.922,14.362 L5.802,14.362 L3.789,20.148 C3.69366619,20.4120013 3.58733392,20.6576655 3.47,20.885 C3.35266608,21.1123345 3.21333414,21.3084992 3.052,21.4735 C2.89066586,21.6385008 2.70733436,21.7686662 2.502,21.864 C2.29666564,21.9593338 2.05833469,22.007 1.787,22.007 C1.66233271,22.007 1.54866718,21.9978334 1.446,21.9795 C1.34333282,21.9611666 1.24800044,21.9336668 1.16,21.897 L1.336,21.182 Z M6.396,17.046 C6.396,16.5986644 6.46383265,16.2008351 6.5995,15.8525 C6.73516734,15.5041649 6.91666553,15.2090012 7.144,14.967 C7.37133447,14.7249988 7.63349851,14.5416673 7.9305,14.417 C8.22750148,14.2923327 8.54099835,14.23 8.871,14.23 C9.20100165,14.23 9.51449851,14.2923327 9.8115,14.417 C10.1085015,14.5416673 10.3706655,14.7249988 10.598,14.967 C10.8253345,15.2090012 11.0068327,15.5041649 11.1425,15.8525 C11.2781673,16.2008351 11.346,16.5986644 11.346,17.046 C11.346,17.4860022 11.2781673,17.8801649 11.1425,18.2285 C11.0068327,18.5768351 10.8253345,18.8701655 10.598,19.1085 C10.3706655,19.3468345 10.1085015,19.5283327 9.8115,19.653 C9.51449851,19.7776673 9.20100165,19.84 8.871,19.84 C8.54099835,19.84 8.22750148,19.7776673 7.9305,19.653 C7.63349851,19.5283327 7.37133447,19.3468345 7.144,19.1085 C6.91666553,18.8701655 6.73516734,18.5768351 6.5995,18.2285 C6.46383265,17.8801649 6.396,17.4860022 6.396,17.046 Z M7.331,17.046 C7.331,17.3540015 7.3676663,17.6326654 7.441,17.882 C7.5143337,18.1313346 7.61883265,18.3458324 7.7545,18.5255 C7.89016734,18.7051676 8.05333238,18.8444995 8.244,18.9435 C8.43466762,19.0425005 8.64366553,19.092 8.871,19.092 C9.09833447,19.092 9.30733238,19.0425005 9.498,18.9435 C9.68866762,18.8444995 9.85183265,18.7051676 9.9875,18.5255 C10.1231673,18.3458324 10.2276663,18.1313346 10.301,17.882 C10.3743337,17.6326654 10.411,17.3540015 10.411,17.046 C10.411,16.7379985 10.3743337,16.4575013 10.301,16.2045 C10.2276663,15.9514987 10.1231673,15.7333342 9.9875,15.55 C9.85183265,15.3666657 9.68866762,15.2255005 9.498,15.1265 C9.30733238,15.0274995 9.09833447,14.978 8.871,14.978 C8.64366553,14.978 8.43466762,15.0274995 8.244,15.1265 C8.05333238,15.2255005 7.89016734,15.3666657 7.7545,15.55 C7.61883265,15.7333342 7.5143337,15.9514987 7.441,16.2045 C7.3676663,16.4575013 7.331,16.7379985 7.331,17.046 Z M13.216,13.262 C13.0399991,13.262 12.8915006,13.2070005 12.7705,13.097 C12.6494994,12.9869994 12.589,12.8476675 12.589,12.679 C12.589,12.5029991 12.6494994,12.3618339 12.7705,12.2555 C12.8915006,12.1491661 13.0399991,12.096 13.216,12.096 C13.3920009,12.096 13.5404994,12.1491661 13.6615,12.2555 C13.7825006,12.3618339 13.843,12.5029991 13.843,12.679 C13.843,12.8476675 13.7825006,12.9869994 13.6615,13.097 C13.5404994,13.2070005 13.3920009,13.262 13.216,13.262 Z M12.754,14.362 L13.656,14.362 L13.656,19.708 L12.754,19.708 L12.754,14.362 Z"/>
  </defs>
  <g fill="#000000" fill-rule="evenodd" transform="translate(0 -12)">
    <use xlink:href="#a"/>
    <use xlink:href="#a"/>
    <use xlink:href="#b"/>
    <use xlink:href="#b"/>
  </g>
</svg>
