<svg xmlns="http://www.w3.org/2000/svg" xmlns:xlink="http://www.w3.org/1999/xlink" width="18" height="9" viewBox="0 0 18 9">
  <defs>
    <path id="a" d="M8.661,20.176 C8.2409979,19.7359978 8.031,19.1660035 8.031,18.466 C8.031,17.6459959 8.3109972,16.8660037 8.871,16.126 C9.4110027,15.3059959 10.080996,14.6760022 10.881,14.236 C11.9810055,13.5759967 13.0609947,13.246 14.121,13.246 C15.0410046,13.246 15.8509965,13.5359971 16.551,14.116 C17.1910032,14.6560027 17.511,15.2559967 17.511,15.916 C17.511,16.6760038 17.211003,17.4759958 16.611,18.316 C16.0909974,19.0960039 15.3910044,19.7459974 14.511,20.266 C13.3909944,20.9260033 12.3110052,21.256 11.271,21.256 C10.1909946,21.256 9.3210033,20.8960036 8.661,20.176 Z"/>
    <path id="b" d="M0.537,17.046 C0.537,16.5986644 0.604832655,16.2008351 0.7405,15.8525 C0.876167345,15.5041649 1.05766553,15.2090012 1.285,14.967 C1.51233447,14.7249988 1.77449851,14.5416673 2.0715,14.417 C2.36850148,14.2923327 2.68199835,14.23 3.012,14.23 C3.34200165,14.23 3.65549851,14.2923327 3.9525,14.417 C4.24950148,14.5416673 4.51166553,14.7249988 4.739,14.967 C4.96633447,15.2090012 5.14783265,15.5041649 5.2835,15.8525 C5.41916734,16.2008351 5.487,16.5986644 5.487,17.046 C5.487,17.4860022 5.41916734,17.8801649 5.2835,18.2285 C5.14783265,18.5768351 4.96633447,18.8701655 4.739,19.1085 C4.51166553,19.3468345 4.24950148,19.5283327 3.9525,19.653 C3.65549851,19.7776673 3.34200165,19.84 3.012,19.84 C2.68199835,19.84 2.36850148,19.7776673 2.0715,19.653 C1.77449851,19.5283327 1.51233447,19.3468345 1.285,19.1085 C1.05766553,18.8701655 0.876167345,18.5768351 0.7405,18.2285 C0.604832655,17.8801649 0.537,17.4860022 0.537,17.046 Z M1.472,17.046 C1.472,17.3540015 1.5086663,17.6326654 1.582,17.882 C1.6553337,18.1313346 1.75983265,18.3458324 1.8955,18.5255 C2.03116734,18.7051676 2.19433238,18.8444995 2.385,18.9435 C2.57566762,19.0425005 2.78466553,19.092 3.012,19.092 C3.23933447,19.092 3.44833238,19.0425005 3.639,18.9435 C3.82966762,18.8444995 3.99283265,18.7051676 4.1285,18.5255 C4.26416734,18.3458324 4.3686663,18.1313346 4.442,17.882 C4.5153337,17.6326654 4.552,17.3540015 4.552,17.046 C4.552,16.7379985 4.5153337,16.4575013 4.442,16.2045 C4.3686663,15.9514987 4.26416734,15.7333342 4.1285,15.55 C3.99283265,15.3666657 3.82966762,15.2255005 3.639,15.1265 C3.44833238,15.0274995 3.23933447,14.978 3.012,14.978 C2.78466553,14.978 2.57566762,15.0274995 2.385,15.1265 C2.19433238,15.2255005 2.03116734,15.3666657 1.8955,15.55 C1.75983265,15.7333342 1.6553337,15.9514987 1.582,16.2045 C1.5086663,16.4575013 1.472,16.7379985 1.472,17.046 Z"/>
  </defs>
  <g fill="#000000" fill-rule="evenodd" transform="translate(0 -13)">
    <use xlink:href="#a"/>
    <use xlink:href="#a"/>
    <use xlink:href="#b"/>
    <use xlink:href="#b"/>
  </g>
</svg>
