<svg xmlns="http://www.w3.org/2000/svg" xmlns:xlink="http://www.w3.org/1999/xlink" width="19" height="8" viewBox="0 0 19 8">
  <defs>
    <polygon id="a" points=".797 20.686 5.537 13.606 10.247 20.686"/>
    <path id="b" d="M18.937,17.146 C18.937,18.146005 18.5970034,18.9859966 17.917,19.666 C17.2169965,20.3660035 16.367005,20.716 15.367,20.716 C14.3869951,20.716 13.5470035,20.3660035 12.847,19.666 C12.1469965,18.9659965 11.797,18.1260049 11.797,17.146 C11.797,16.1659951 12.1469965,15.3260035 12.847,14.626 C13.5470035,13.9259965 14.3869951,13.576 15.367,13.576 C16.367005,13.576 17.2169965,13.9259965 17.917,14.626 C18.5970034,15.3060034 18.937,16.145995 18.937,17.146 Z M15.367,14.146 C14.5469959,14.146 13.8470029,14.4359971 13.267,15.016 C12.666997,15.616003 12.367,16.3259959 12.367,17.146 C12.367,17.9660041 12.666997,18.675997 13.267,19.276 C13.8470029,19.8560029 14.5469959,20.146 15.367,20.146 C16.2070042,20.146 16.9169971,19.8560029 17.497,19.276 C18.0770029,18.6959971 18.367,17.9860042 18.367,17.146 C18.367,16.3059958 18.0770029,15.5960029 17.497,15.016 C16.9169971,14.4359971 16.2070042,14.146 15.367,14.146 Z"/>
  </defs>
  <g fill="#000000" fill-rule="evenodd" transform="translate(0 -13)">
    <use xlink:href="#a"/>
    <use xlink:href="#a"/>
    <use xlink:href="#b"/>
    <use xlink:href="#b"/>
  </g>
</svg>
