<svg xmlns="http://www.w3.org/2000/svg" width="10" height="10" viewBox="0 0 10 10">
  <path fill="#000000" fill-rule="evenodd" d="M9.758,4.879 C9.758,6.2456735 9.29333798,7.39366202 8.364,8.323 C7.40732855,9.27967145 6.2456735,9.758 4.879,9.758 C3.53965997,9.758 2.39167145,9.27967145 1.435,8.323 C0.47832855,7.36632855 0,6.21834003 0,4.879 C0,3.53965997 0.47832855,2.39167145 1.435,1.435 C2.39167145,0.47832855 3.53965997,0 4.879,0 C6.2456735,0 7.40732855,0.47832855 8.364,1.435 C9.29333798,2.36433798 9.758,3.5123265 9.758,4.879 Z M4.879,0.779 C3.75832773,0.779 2.80167063,1.17532937 2.009,1.968 C1.1889959,2.7880041 0.779,3.75832773 0.779,4.879 C0.779,5.99967227 1.1889959,6.9699959 2.009,7.79 C2.80167063,8.58267063 3.75832773,8.979 4.879,8.979 C6.02700574,8.979 6.99732937,8.58267063 7.79,7.79 C8.58267063,6.99732937 8.979,6.02700574 8.979,4.879 C8.979,3.73099426 8.58267063,2.76067063 7.79,1.968 C6.99732937,1.17532937 6.02700574,0.779 4.879,0.779 Z"/>
</svg>
