<svg xmlns="http://www.w3.org/2000/svg" xmlns:xlink="http://www.w3.org/1999/xlink" width="21" height="10" viewBox="0 0 21 10">
  <defs>
    <path id="a" d="M20.937,6.146 C20.937,7.146005 20.5970034,7.9859966 19.917,8.666 C19.2169965,9.3660035 18.367005,9.716 17.367,9.716 C16.3869951,9.716 15.5470035,9.3660035 14.847,8.666 C14.1469965,7.9659965 13.797,7.1260049 13.797,6.146 C13.797,5.1659951 14.1469965,4.3260035 14.847,3.626 C15.5470035,2.9259965 16.3869951,2.576 17.367,2.576 C18.367005,2.576 19.2169965,2.9259965 19.917,3.626 C20.5970034,4.3060034 20.937,5.145995 20.937,6.146 Z M17.367,3.146 C16.5469959,3.146 15.8470029,3.4359971 15.267,4.016 C14.666997,4.616003 14.367,5.3259959 14.367,6.146 C14.367,6.9660041 14.666997,7.675997 15.267,8.276 C15.8470029,8.8560029 16.5469959,9.146 17.367,9.146 C18.2070042,9.146 18.9169971,8.8560029 19.497,8.276 C20.0770029,7.6959971 20.367,6.9860042 20.367,6.146 C20.367,5.3059958 20.0770029,4.5960029 19.497,4.016 C18.9169971,3.4359971 18.2070042,3.146 17.367,3.146 Z"/>
    <path id="b" d="M0.699,0.876 L1.601,0.876 L1.601,3.01 L1.568,4.11 C1.82466795,3.86799879 2.09233194,3.66083419 2.371,3.4885 C2.64966806,3.3161658 2.97599813,3.23 3.35,3.23 C3.91466949,3.23 4.32716537,3.40599824 4.5875,3.758 C4.84783464,4.11000176 4.978,4.63066322 4.978,5.32 L4.978,8.708 L4.076,8.708 L4.076,5.441 C4.076,4.93499747 3.99533414,4.57016778 3.834,4.3465 C3.67266586,4.12283221 3.41600176,4.011 3.064,4.011 C2.78533194,4.011 2.53966773,4.08066597 2.327,4.22 C2.11433227,4.35933403 1.87233469,4.56466531 1.601,4.836 L1.601,8.708 L0.699,8.708 L0.699,0.876 Z M6.287,6.046 C6.287,5.59866443 6.35483266,5.20083507 6.4905,4.8525 C6.62616735,4.50416492 6.80766553,4.20900121 7.035,3.967 C7.26233447,3.72499879 7.52449852,3.54166729 7.8215,3.417 C8.11850149,3.29233271 8.43199835,3.23 8.762,3.23 C9.09200165,3.23 9.40549852,3.29233271 9.7025,3.417 C9.99950149,3.54166729 10.2616655,3.72499879 10.489,3.967 C10.7163345,4.20900121 10.8978327,4.50416492 11.0335,4.8525 C11.1691673,5.20083507 11.237,5.59866443 11.237,6.046 C11.237,6.4860022 11.1691673,6.88016492 11.0335,7.2285 C10.8978327,7.57683507 10.7163345,7.87016547 10.489,8.1085 C10.2616655,8.34683452 9.99950149,8.52833271 9.7025,8.653 C9.40549852,8.77766729 9.09200165,8.84 8.762,8.84 C8.43199835,8.84 8.11850149,8.77766729 7.8215,8.653 C7.52449852,8.52833271 7.26233447,8.34683452 7.035,8.1085 C6.80766553,7.87016547 6.62616735,7.57683507 6.4905,7.2285 C6.35483266,6.88016492 6.287,6.4860022 6.287,6.046 Z M7.222,6.046 C7.222,6.35400154 7.2586663,6.63266542 7.332,6.882 C7.4053337,7.13133458 7.50983266,7.34583243 7.6455,7.5255 C7.78116735,7.70516756 7.94433238,7.8444995 8.135,7.9435 C8.32566762,8.04250049 8.53466553,8.092 8.762,8.092 C8.98933447,8.092 9.19833238,8.04250049 9.389,7.9435 C9.57966762,7.8444995 9.74283266,7.70516756 9.8785,7.5255 C10.0141673,7.34583243 10.1186663,7.13133458 10.192,6.882 C10.2653337,6.63266542 10.302,6.35400154 10.302,6.046 C10.302,5.73799846 10.2653337,5.45750126 10.192,5.2045 C10.1186663,4.95149873 10.0141673,4.73333425 9.8785,4.55 C9.74283266,4.36666575 9.57966762,4.22550049 9.389,4.1265 C9.19833238,4.0274995 8.98933447,3.978 8.762,3.978 C8.53466553,3.978 8.32566762,4.0274995 8.135,4.1265 C7.94433238,4.22550049 7.78116735,4.36666575 7.6455,4.55 C7.50983266,4.73333425 7.4053337,4.95149873 7.332,5.2045 C7.2586663,5.45750126 7.222,5.73799846 7.222,6.046 Z"/>
  </defs>
  <g fill="#000000" fill-rule="evenodd">
    <use xlink:href="#a"/>
    <use xlink:href="#a"/>
    <use xlink:href="#b"/>
    <use xlink:href="#b"/>
  </g>
</svg>
