<svg xmlns="http://www.w3.org/2000/svg" xmlns:xlink="http://www.w3.org/1999/xlink" width="27" height="13" viewBox="0 0 27 13">
  <defs>
    <path id="a" d="M25.533,6.146 C25.533,4.6859927 25.0030053,3.3960056 23.943,2.276 C22.8629946,1.1959946 21.5730075,0.656 20.073,0.656 C18.5529924,0.656 17.2530054,1.1959946 16.173,2.276 C15.1129947,3.3960056 14.583,4.6859927 14.583,6.146 C14.583,7.6060073 15.1129947,8.8959944 16.173,10.016 C17.2530054,11.0960054 18.5529924,11.636 20.073,11.636 C21.5730075,11.636 22.8629946,11.0960054 23.943,10.016 C25.0030053,8.8959944 25.533,7.6060073 25.533,6.146 Z M20.073,12.146 C18.4129917,12.146 16.9930059,11.5560059 15.813,10.376 C14.6529942,9.2159942 14.073,7.8060083 14.073,6.146 C14.073,4.4859917 14.6529942,3.0760058 15.813,1.916 C16.9930059,0.7359941 18.4129917,0.146 20.073,0.146 C21.7130082,0.146 23.1229941,0.7359941 24.303,1.916 C25.4630058,3.0760058 26.043,4.4859917 26.043,6.146 C26.043,7.8060083 25.4630058,9.2159942 24.303,10.376 C23.1229941,11.5560059 21.7130082,12.146 20.073,12.146 Z M15.723,6.176 C15.9030009,5.6559974 16.192998,5.1760022 16.593,4.736 C16.993002,4.2959978 17.4479975,3.91100165 17.958,3.581 C18.4680026,3.25099835 19.022997,2.9960009 19.623,2.816 C20.223003,2.6359991 20.822997,2.546 21.423,2.546 C22.023003,2.546 22.5479978,2.645999 22.998,2.846 C23.4480023,3.046001 23.8079987,3.3159983 24.078,3.656 C24.3480014,3.9960017 24.5129997,4.39099775 24.573,4.841 C24.6330003,5.29100225 24.5730009,5.7659975 24.393,6.266 C24.2129991,6.7860026 23.928002,7.2659978 23.538,7.706 C23.1479981,8.1460022 22.6930026,8.53099835 22.173,8.861 C21.6529974,9.19100165 21.093003,9.4459991 20.493,9.626 C19.892997,9.8060009 19.293003,9.896 18.693,9.896 C18.092997,9.896 17.5680023,9.796001 17.118,9.596 C16.6679978,9.395999 16.3130013,9.1260017 16.053,8.786 C15.7929987,8.4459983 15.6280004,8.05100225 15.558,7.601 C15.4879997,7.15099775 15.5429991,6.6760025 15.723,6.176 Z"/>
    <path id="b" d="M0.612,10.182 L0.81,10.2315 C0.8833337,10.2498334 0.95299967,10.259 1.019,10.259 C1.32700154,10.259 1.5781657,10.1508344 1.7725,9.9345 C1.96683431,9.71816558 2.11899945,9.44500165 2.229,9.115 L2.35,8.719 L0.205,3.362 L1.14,3.362 L2.229,6.321 C2.30966707,6.55566784 2.39583288,6.80316536 2.4875,7.0635 C2.57916713,7.32383463 2.66533293,7.57866542 2.746,7.828 L2.79,7.828 C2.87066707,7.58599879 2.9476663,7.33300132 3.021,7.069 C3.0943337,6.80499868 3.1676663,6.55566784 3.241,6.321 L4.198,3.362 L5.078,3.362 L3.065,9.148 C2.96966619,9.41200132 2.86333392,9.65766553 2.746,9.885 C2.62866608,10.1123345 2.48933414,10.3084992 2.328,10.4735 C2.16666586,10.6385008 1.98333436,10.7686662 1.778,10.864 C1.57266564,10.9593338 1.33433469,11.007 1.063,11.007 C0.93833271,11.007 0.82466718,10.9978334 0.722,10.9795 C0.61933282,10.9611666 0.52400044,10.9336668 0.436,10.897 L0.612,10.182 Z M5.672,6.046 C5.672,5.59866443 5.73983266,5.20083507 5.8755,4.8525 C6.01116735,4.50416492 6.19266553,4.20900121 6.42,3.967 C6.64733447,3.72499879 6.90949852,3.54166729 7.2065,3.417 C7.50350149,3.29233271 7.81699835,3.23 8.147,3.23 C8.47700165,3.23 8.79049852,3.29233271 9.0875,3.417 C9.38450149,3.54166729 9.64666553,3.72499879 9.874,3.967 C10.1013345,4.20900121 10.2828327,4.50416492 10.4185,4.8525 C10.5541673,5.20083507 10.622,5.59866443 10.622,6.046 C10.622,6.4860022 10.5541673,6.88016492 10.4185,7.2285 C10.2828327,7.57683507 10.1013345,7.87016547 9.874,8.1085 C9.64666553,8.34683452 9.38450149,8.52833271 9.0875,8.653 C8.79049852,8.77766729 8.47700165,8.84 8.147,8.84 C7.81699835,8.84 7.50350149,8.77766729 7.2065,8.653 C6.90949852,8.52833271 6.64733447,8.34683452 6.42,8.1085 C6.19266553,7.87016547 6.01116735,7.57683507 5.8755,7.2285 C5.73983266,6.88016492 5.672,6.4860022 5.672,6.046 Z M6.607,6.046 C6.607,6.35400154 6.6436663,6.63266542 6.717,6.882 C6.7903337,7.13133458 6.89483266,7.34583243 7.0305,7.5255 C7.16616735,7.70516756 7.32933238,7.8444995 7.52,7.9435 C7.71066762,8.04250049 7.91966553,8.092 8.147,8.092 C8.37433447,8.092 8.58333238,8.04250049 8.774,7.9435 C8.96466762,7.8444995 9.12783266,7.70516756 9.2635,7.5255 C9.39916735,7.34583243 9.5036663,7.13133458 9.577,6.882 C9.6503337,6.63266542 9.687,6.35400154 9.687,6.046 C9.687,5.73799846 9.6503337,5.45750126 9.577,5.2045 C9.5036663,4.95149873 9.39916735,4.73333425 9.2635,4.55 C9.12783266,4.36666575 8.96466762,4.22550049 8.774,4.1265 C8.58333238,4.0274995 8.37433447,3.978 8.147,3.978 C7.91966553,3.978 7.71066762,4.0274995 7.52,4.1265 C7.32933238,4.22550049 7.16616735,4.36666575 7.0305,4.55 C6.89483266,4.73333425 6.7903337,4.95149873 6.717,5.2045 C6.6436663,5.45750126 6.607,5.73799846 6.607,6.046 Z"/>
  </defs>
  <g fill="#000000" fill-rule="evenodd">
    <use xlink:href="#a"/>
    <use xlink:href="#b"/>
  </g>
</svg>
