<svg xmlns="http://www.w3.org/2000/svg" xmlns:xlink="http://www.w3.org/1999/xlink" width="22" height="9" viewBox="0 0 22 9">
  <defs>
    <polygon id="a" points=".797 20.686 5.537 13.606 10.247 20.686"/>
    <path id="b" d="M12.427,20.176 C12.0069979,19.7359978 11.797,19.1660035 11.797,18.466 C11.797,17.6459959 12.0769972,16.8660037 12.637,16.126 C13.1770027,15.3059959 13.846996,14.6760022 14.647,14.236 C15.7470055,13.5759967 16.8269947,13.246 17.887,13.246 C18.8070046,13.246 19.6169965,13.5359971 20.317,14.116 C20.9570032,14.6560027 21.277,15.2559967 21.277,15.916 C21.277,16.6760038 20.977003,17.4759958 20.377,18.316 C19.8569974,19.0960039 19.1570044,19.7459974 18.277,20.266 C17.1569944,20.9260033 16.0770052,21.256 15.037,21.256 C13.9569946,21.256 13.0870033,20.8960036 12.427,20.176 Z"/>
  </defs>
  <g fill="#000000" fill-rule="evenodd" transform="translate(0 -13)">
    <use xlink:href="#a"/>
    <use xlink:href="#a"/>
    <use xlink:href="#b"/>
    <use xlink:href="#b"/>
  </g>
</svg>
