<svg xmlns="http://www.w3.org/2000/svg" xmlns:xlink="http://www.w3.org/1999/xlink" width="15" height="10" viewBox="0 0 15 10">
  <defs>
    <path id="a" d="M5.427,8.176 C5.0069979,7.7359978 4.797,7.1660035 4.797,6.466 C4.797,5.6459959 5.0769972,4.8660037 5.637,4.126 C6.1770027,3.3059959 6.846996,2.6760022 7.647,2.236 C8.7470055,1.5759967 9.8269947,1.246 10.887,1.246 C11.8070046,1.246 12.6169965,1.5359971 13.317,2.116 C13.9570032,2.6560027 14.277,3.2559967 14.277,3.916 C14.277,4.6760038 13.977003,5.4759958 13.377,6.316 C12.8569974,7.0960039 12.1570044,7.7459974 11.277,8.266 C10.1569944,8.9260033 9.0770052,9.256 8.037,9.256 C6.9569946,9.256 6.0870033,8.8960036 5.427,8.176 Z"/>
    <path id="b" d="M1.161,1.262 C0.98499912,1.262 0.836500605,1.20700055 0.7155,1.097 C0.594499395,0.98699945 0.534,0.84766751 0.534,0.679 C0.534,0.50299912 0.594499395,0.361833865 0.7155,0.2555 C0.836500605,0.149166135 0.98499912,0.096 1.161,0.096 C1.33700088,0.096 1.48549939,0.149166135 1.6065,0.2555 C1.7275006,0.361833865 1.788,0.50299912 1.788,0.679 C1.788,0.84766751 1.7275006,0.98699945 1.6065,1.097 C1.48549939,1.20700055 1.33700088,1.262 1.161,1.262 Z M0.699,2.362 L1.601,2.362 L1.601,7.708 L0.699,7.708 L0.699,2.362 Z"/>
  </defs>
  <g fill="#000000" fill-rule="evenodd">
    <use xlink:href="#a"/>
    <use xlink:href="#b"/>
  </g>
</svg>
