<svg xmlns="http://www.w3.org/2000/svg" xmlns:xlink="http://www.w3.org/1999/xlink" width="27" height="10" viewBox="0 0 27 10">
  <defs>
    <path id="a" d="M17.427,8.176 C17.0069979,7.7359978 16.797,7.1660035 16.797,6.466 C16.797,5.6459959 17.0769972,4.8660037 17.637,4.126 C18.1770027,3.3059959 18.846996,2.6760022 19.647,2.236 C20.7470055,1.5759967 21.8269947,1.246 22.887,1.246 C23.8070046,1.246 24.6169965,1.5359971 25.317,2.116 C25.9570032,2.6560027 26.277,3.2559967 26.277,3.916 C26.277,4.6760038 25.977003,5.4759958 25.377,6.316 C24.8569974,7.0960039 24.1570044,7.7459974 23.277,8.266 C22.1569944,8.9260033 21.0770052,9.256 20.037,9.256 C18.9569946,9.256 18.0870033,8.8960036 17.427,8.176 Z"/>
    <path id="b" d="M1.336,9.182 L1.534,9.2315 C1.6073337,9.24983343 1.67699967,9.259 1.743,9.259 C2.05100154,9.259 2.30216569,9.15083442 2.4965,8.9345 C2.6908343,8.71816559 2.84299945,8.44500165 2.953,8.115 L3.074,7.719 L0.929,2.362 L1.864,2.362 L2.953,5.321 C3.03366707,5.55566784 3.11983287,5.80316537 3.2115,6.0635 C3.30316712,6.32383464 3.38933293,6.57866542 3.47,6.828 L3.514,6.828 C3.59466707,6.58599879 3.6716663,6.33300132 3.745,6.069 C3.8183337,5.80499868 3.8916663,5.55566784 3.965,5.321 L4.922,2.362 L5.802,2.362 L3.789,8.148 C3.69366619,8.41200132 3.58733392,8.65766553 3.47,8.885 C3.35266608,9.11233447 3.21333414,9.30849918 3.052,9.4735 C2.89066586,9.63850083 2.70733436,9.76866619 2.502,9.864 C2.29666564,9.95933381 2.05833469,10.007 1.787,10.007 C1.66233271,10.007 1.54866718,9.99783343 1.446,9.9795 C1.34333282,9.96116658 1.24800044,9.93366685 1.16,9.897 L1.336,9.182 Z M6.396,5.046 C6.396,4.59866443 6.46383265,4.20083508 6.5995,3.8525 C6.73516734,3.50416493 6.91666553,3.20900121 7.144,2.967 C7.37133447,2.72499879 7.63349851,2.54166729 7.9305,2.417 C8.22750148,2.29233271 8.54099835,2.23 8.871,2.23 C9.20100165,2.23 9.51449851,2.29233271 9.8115,2.417 C10.1085015,2.54166729 10.3706655,2.72499879 10.598,2.967 C10.8253345,3.20900121 11.0068327,3.50416493 11.1425,3.8525 C11.2781673,4.20083508 11.346,4.59866443 11.346,5.046 C11.346,5.4860022 11.2781673,5.88016493 11.1425,6.2285 C11.0068327,6.57683508 10.8253345,6.87016548 10.598,7.1085 C10.3706655,7.34683453 10.1085015,7.52833271 9.8115,7.653 C9.51449851,7.77766729 9.20100165,7.84 8.871,7.84 C8.54099835,7.84 8.22750148,7.77766729 7.9305,7.653 C7.63349851,7.52833271 7.37133447,7.34683453 7.144,7.1085 C6.91666553,6.87016548 6.73516734,6.57683508 6.5995,6.2285 C6.46383265,5.88016493 6.396,5.4860022 6.396,5.046 Z M7.331,5.046 C7.331,5.35400154 7.3676663,5.63266542 7.441,5.882 C7.5143337,6.13133458 7.61883265,6.34583244 7.7545,6.5255 C7.89016734,6.70516756 8.05333238,6.84449951 8.244,6.9435 C8.43466762,7.0425005 8.64366553,7.092 8.871,7.092 C9.09833447,7.092 9.30733238,7.0425005 9.498,6.9435 C9.68866762,6.84449951 9.85183265,6.70516756 9.9875,6.5255 C10.1231673,6.34583244 10.2276663,6.13133458 10.301,5.882 C10.3743337,5.63266542 10.411,5.35400154 10.411,5.046 C10.411,4.73799846 10.3743337,4.45750127 10.301,4.2045 C10.2276663,3.95149874 10.1231673,3.73333425 9.9875,3.55 C9.85183265,3.36666575 9.68866762,3.2255005 9.498,3.1265 C9.30733238,3.02749951 9.09833447,2.978 8.871,2.978 C8.64366553,2.978 8.43466762,3.02749951 8.244,3.1265 C8.05333238,3.2255005 7.89016734,3.36666575 7.7545,3.55 C7.61883265,3.73333425 7.5143337,3.95149874 7.441,4.2045 C7.3676663,4.45750127 7.331,4.73799846 7.331,5.046 Z M13.216,1.262 C13.0399991,1.262 12.8915006,1.20700055 12.7705,1.097 C12.6494994,0.98699945 12.589,0.84766751 12.589,0.679 C12.589,0.50299912 12.6494994,0.361833865 12.7705,0.2555 C12.8915006,0.149166135 13.0399991,0.096 13.216,0.096 C13.3920009,0.096 13.5404994,0.149166135 13.6615,0.2555 C13.7825006,0.361833865 13.843,0.50299912 13.843,0.679 C13.843,0.84766751 13.7825006,0.98699945 13.6615,1.097 C13.5404994,1.20700055 13.3920009,1.262 13.216,1.262 Z M12.754,2.362 L13.656,2.362 L13.656,7.708 L12.754,7.708 L12.754,2.362 Z"/>
  </defs>
  <g fill="#000000" fill-rule="evenodd">
    <use xlink:href="#a"/>
    <use xlink:href="#b"/>
  </g>
</svg>
