<svg xmlns="http://www.w3.org/2000/svg" xmlns:xlink="http://www.w3.org/1999/xlink" width="17" height="17" viewBox="0 0 17 17">
  <defs>
    <path id="a" d="M8.2,3.6000061 L8.98545455,3.6000061 C8.95272727,4.13303572 8.90909091,4.64556419 8.85454545,5.09658925 L13,5.09658925 C13,8.17176009 12.8581818,10.1603706 12.5963636,11.0214184 C12.3345455,11.841464 11.8436364,12.2719879 11.1454545,12.2719879 C10.6545455,12.2719879 10.2509091,12.2514867 9.92363636,12.2104845 L9.72727273,10.7959059 C10.2290909,10.8779104 10.6872727,10.9189127 11.1018182,10.9189127 C11.6690909,10.8779104 11.9854545,10.4063842 12.0727273,9.50433412 C12.1490909,8.56128173 12.1927273,7.55672592 12.1927273,6.4906667 L8.63636364,6.4906667 C8.40727273,7.65923162 8.09090909,8.66378742 7.68727273,9.48383298 C7.01090909,10.7959059 5.87636364,11.841464 4.30545455,12.6000061 L4,11.2059287 C5.40727273,10.5908945 6.42181818,9.68884437 7.05454545,8.54078059 C7.36,7.9667487 7.61090909,7.26970998 7.79636364,6.4906667 L4.34909091,6.4906667 L4.34909091,5.09658925 L8.04727273,5.09658925 C8.11272727,4.60456191 8.15636364,4.11253458 8.2,3.6000061 Z M15.7012528,8.2 C15.7012528,6.20465669 14.9751113,4.44167432 13.5228067,2.911 C12.0431001,1.43499262 10.2756993,0.697 8.22055119,0.697 C6.13800114,0.697 4.35689953,1.43499262 2.87719292,2.911 C1.42488828,4.44167432 0.698746851,6.20465669 0.698746851,8.2 C0.698746851,10.1953433 1.42488828,11.9583257 2.87719292,13.489 C4.35689953,14.9650074 6.13800114,15.703 8.22055119,15.703 C10.2756993,15.703 12.0431001,14.9650074 13.5228067,13.489 C14.9751113,11.9583257 15.7012528,10.1953433 15.7012528,8.2 Z M8.22055119,16.4 C5.94618732,16.4 4.00067633,15.5936747 2.38395984,13.981 C0.794645335,12.3956587 0,10.468678 0,8.2 C0,5.93132199 0.794645335,4.00434126 2.38395984,2.419 C4.00067633,0.80632527 5.94618732,0 8.22055119,0 C10.4675131,0 12.3993233,0.80632527 14.0160398,2.419 C15.6053543,4.00434126 16.3999996,5.93132199 16.3999996,8.2 C16.3999996,10.468678 15.6053543,12.3956587 14.0160398,13.981 C12.3993233,15.5936747 10.4675131,16.4 8.22055119,16.4 Z"/>
  </defs>
  <g fill="#000000" fill-rule="evenodd">
    <use xlink:href="#a"/>
    <use xlink:href="#a"/>
  </g>
</svg>
