<svg xmlns="http://www.w3.org/2000/svg" xmlns:xlink="http://www.w3.org/1999/xlink" width="19" height="14" viewBox="0 0 19 14">
  <defs>
    <path id="a" d="M0.797,10.686 L5.537,3.606 L10.247,10.686 L0.797,10.686 Z M5.537,4.656 L1.877,10.116 L9.167,10.116 L5.537,4.656 Z"/>
    <path id="b" d="M15.097,13.716 L15.097,10.716 C14.1769954,10.6559997 13.3970032,10.2760035 12.757,9.576 C12.1169968,8.8759965 11.797,8.0660046 11.797,7.146 C11.797,6.2259954 12.1169968,5.4160035 12.757,4.716 C13.3970032,4.0359966 14.1769954,3.6660003 15.097,3.606 L15.097,0.576 L15.667,0.576 L15.667,3.606 C16.6270048,3.6860004 17.406997,4.0659966 18.007,4.746 C18.6270031,5.4260034 18.937,6.2259954 18.937,7.146 C18.937,8.0860047 18.6270031,8.8959966 18.007,9.576 C17.406997,10.2560034 16.6270048,10.6359996 15.667,10.716 L15.667,13.716 L15.097,13.716 Z M15.097,4.176 C14.2769959,4.2760005 13.6270024,4.5959973 13.147,5.136 C12.6269974,5.7160029 12.367,6.3859962 12.367,7.146 C12.367,7.9260039 12.6269974,8.6059971 13.147,9.186 C13.6270024,9.7260027 14.2769959,10.0459995 15.097,10.146 L15.097,4.176 Z M18.367,7.146 C18.367,6.4059963 18.1070026,5.7460029 17.587,5.166 C17.0669974,4.5859971 16.4270038,4.2560004 15.667,4.176 L15.667,10.146 C16.4270038,10.0659996 17.0669974,9.7360029 17.587,9.156 C18.1070026,8.5759971 18.367,7.9060038 18.367,7.146 Z"/>
  </defs>
  <g fill="#000000" fill-rule="evenodd">
    <use xlink:href="#a"/>
    <use xlink:href="#b"/>
  </g>
</svg>
