<svg xmlns="http://www.w3.org/2000/svg" width="120" height="100" viewBox="0 0 120 100">
  <path fill="#6A755E" fill-rule="evenodd" d="M50.9734513,19.6460177 C42.4778336,23.3628504 36.1062159,27.920327 31.8584071,33.3185841 C27.6105982,38.7168412 25.4867257,45.3981903 25.4867257,53.3628319 C26.0177018,53.1858398 26.9026487,53.0973451 28.1415929,53.0973451 C34.5133062,53.0973451 39.9114823,55.0442283 44.3362832,58.9380531 C48.7610841,62.8318779 50.9734513,68.1415593 50.9734513,74.8672566 C50.9734513,82.3009221 48.8495788,88.2300664 44.6017699,92.6548673 C40.3539611,97.0796681 34.8672903,99.2920354 28.1415929,99.2920354 C18.761015,99.2920354 11.7256872,95.8849898 7.03539823,89.0707965 C2.34510929,82.2566031 0,72.7434239 0,60.5309735 C0,47.2565708 3.36279823,35.5310243 10.0884956,25.3539823 C16.8141929,15.1769403 27.2565664,6.72569735 41.4159292,0 L50.9734513,19.6460177 Z M120,19.6460177 C111.504382,23.3628504 105.132765,27.920327 100.884956,33.3185841 C96.6371469,38.7168412 94.5132743,45.3981903 94.5132743,53.3628319 C95.0442504,53.1858398 95.9291973,53.0973451 97.1681416,53.0973451 C103.539855,53.0973451 108.938031,55.0442283 113.362832,58.9380531 C117.787633,62.8318779 120,68.1415593 120,74.8672566 C120,82.3009221 117.876127,88.2300664 113.628319,92.6548673 C109.38051,97.0796681 103.893839,99.2920354 97.1681416,99.2920354 C87.7875637,99.2920354 80.7522358,95.8849898 76.0619469,89.0707965 C71.371658,82.2566031 69.0265487,72.7434239 69.0265487,60.5309735 C69.0265487,47.2565708 72.3893469,35.5310243 79.1150442,25.3539823 C85.8407416,15.1769403 96.283115,6.72569735 110.442478,0 L120,19.6460177 Z" opacity=".099" transform="rotate(-180 60 49.646)"/>
</svg>
