<svg xmlns="http://www.w3.org/2000/svg" width="120" height="100" viewBox="0 0 120 100">
  <path fill="#6A755E" fill-rule="evenodd" d="M50.9724069,19.6456152 C42.4769633,23.3623717 36.1054761,27.9197549 31.8577543,33.3179014 C27.6100325,38.7160478 25.4862034,45.3972601 25.4862034,53.3617385 C26.0171687,53.1847501 26.9020974,53.0962572 28.1410163,53.0962572 C34.512599,53.0962572 39.9106645,55.0431005 44.3353747,58.9368455 C48.760085,62.8305905 50.9724069,68.1401631 50.9724069,74.8657226 C50.9724069,82.2992358 48.8485778,88.2282585 44.600856,92.6529688 C40.3531342,97.077679 34.8665758,99.2900009 28.1410163,99.2900009 C18.7606306,99.2900009 11.7254469,95.8830252 7.03525408,89.0689714 C2.34506124,82.2549177 0,72.7419334 0,60.5297332 C0,47.2556025 3.36272933,35.5302963 10.0882889,25.3534628 C16.8138484,15.1766293 27.2560079,6.72555954 41.4150806,0 L50.9724069,19.6456152 Z M119.997541,19.6456152 C111.502098,23.3623717 105.13061,27.9197549 100.882889,33.3179014 C96.6351668,38.7160478 94.5113378,45.3972601 94.5113378,53.3617385 C95.042303,53.1847501 95.9272318,53.0962572 97.1661506,53.0962572 C103.537733,53.0962572 108.935799,55.0431005 113.360509,58.9368455 C117.785219,62.8305905 119.997541,68.1401631 119.997541,74.8657226 C119.997541,82.2992358 117.873712,88.2282585 113.62599,92.6529688 C109.378269,97.077679 103.89171,99.2900009 97.1661506,99.2900009 C87.785765,99.2900009 80.7505812,95.8830252 76.0603884,89.0689714 C71.3701956,82.2549177 69.0251343,72.7419334 69.0251343,60.5297332 C69.0251343,47.2556025 72.3878637,35.5302963 79.1134232,25.3534628 C85.8389827,15.1766293 96.2811422,6.72555954 110.440215,0 L119.997541,19.6456152 Z" opacity=".1"/>
</svg>
