<svg xmlns="http://www.w3.org/2000/svg" width="17" height="17" viewBox="0 0 17 17">
  <path fill="#000000" fill-rule="evenodd" d="M15.662,8.2 C15.662,6.20465669 14.9376739,4.44167432 13.489,2.911 C12.0129926,1.43499262 10.2500103,0.697 8.2,0.697 C6.12265628,0.697 4.34600738,1.43499262 2.87,2.911 C1.42132609,4.44167432 0.697,6.20465669 0.697,8.2 C0.697,10.1953433 1.42132609,11.9583257 2.87,13.489 C4.34600738,14.9650074 6.12265628,15.703 8.2,15.703 C10.2500103,15.703 12.0129926,14.9650074 13.489,13.489 C14.9376739,11.9583257 15.662,10.1953433 15.662,8.2 Z M8.2,16.4 C5.93132199,16.4 3.99067473,15.5936747 2.378,13.981 C0.79265874,12.3956587 0,10.468678 0,8.2 C0,5.93132199 0.79265874,4.00434126 2.378,2.419 C3.99067473,0.80632527 5.93132199,0 8.2,0 C10.4413445,0 12.3683253,0.80632527 13.981,2.419 C15.5663413,4.00434126 16.359,5.93132199 16.359,8.2 C16.359,10.468678 15.5663413,12.3956587 13.981,13.981 C12.3683253,15.5936747 10.4413445,16.4 8.2,16.4 Z M13.94,4.92 C14.0766673,5.16600123 14.1586665,5.45299836 14.186,5.781 C14.2133335,6.10900164 14.2133335,6.44383163 14.186,6.7855 C14.1586665,7.12716838 14.1040004,7.44833183 14.022,7.749 C13.9399996,8.04966817 13.8580004,8.29566571 13.776,8.487 C13.4206649,9.41633798 12.90817,10.2294965 12.2385,10.9265 C11.56883,11.6235035 10.9470029,12.1223318 10.373,12.423 C9.19766079,13.0516698 7.74900861,13.2840008 6.027,13.12 C5.78099877,13.0926665 5.49400164,13.0516669 5.166,12.997 C4.83799836,12.9423331 4.50316837,12.8535006 4.1615,12.7305 C3.81983163,12.6074994 3.49866817,12.4503343 3.198,12.259 C2.89733183,12.0676657 2.66500082,11.8216682 2.501,11.521 C2.30966571,11.2203318 2.18666694,10.8991684 2.132,10.5575 C2.07733306,10.2158316 2.07049979,9.88783491 2.1115,9.5735 C2.15250021,9.2591651 2.21399959,8.97216797 2.296,8.7125 C2.37800041,8.45283204 2.45999959,8.24100082 2.542,8.077 C2.89733511,7.12032855 3.38933019,6.32766981 4.018,5.699 C4.64666981,5.07033019 5.2343306,4.60566817 5.781,4.305 C6.35500287,3.97699836 7.05882917,3.71050103 7.8925,3.5055 C8.72617084,3.30049898 9.66232814,3.26633265 10.701,3.403 L11.4185,3.5055 C11.7055014,3.54650021 12.0061651,3.61483286 12.3205,3.7105 C12.6348349,3.80616715 12.9354986,3.94966571 13.2225,4.141 C13.5095014,4.33233429 13.7486657,4.59199836 13.94,4.92 Z M13.038,5.535 C12.8739992,5.23433183 12.6485014,5.03616715 12.3615,4.9405 C12.0744986,4.84483286 11.7601684,4.81066653 11.4185,4.838 C11.0768316,4.86533347 10.7283351,4.94049939 10.373,5.0635 C10.0176649,5.18650062 9.7033347,5.31633265 9.43,5.453 C9.01999795,5.67166776 8.65100164,5.86983245 8.323,6.0475 C7.99499836,6.22516756 7.63966858,6.42333224 7.257,6.642 C6.87433142,6.86066776 6.50533511,7.07249898 6.15,7.2775 C5.79466489,7.48250103 5.42566858,7.7216653 5.043,7.995 C4.7696653,8.15900082 4.4963347,8.35716551 4.223,8.5895 C3.9496653,8.8218345 3.71050102,9.0746653 3.5055,9.348 C3.30049897,9.6213347 3.17066694,9.90833183 3.116,10.209 C3.06133306,10.5096682 3.12966571,10.8103318 3.321,11.111 C3.48500082,11.4390016 3.71733183,11.6508329 4.018,11.7465 C4.31866817,11.8421671 4.63299836,11.8695002 4.961,11.8285 C5.28900164,11.7874998 5.62383162,11.6986674 5.9655,11.562 C6.30716838,11.4253327 6.62833183,11.2886674 6.929,11.152 C7.33900205,10.9333322 7.72166489,10.7283343 8.077,10.537 C8.43233511,10.3456657 8.80133142,10.1406678 9.184,9.922 C9.56666858,9.70333224 9.92199836,9.50516756 10.25,9.3275 C10.5780016,9.14983245 10.9333314,8.9243347 11.316,8.651 C11.5893347,8.48699918 11.8626653,8.2888345 12.136,8.0565 C12.4093347,7.82416551 12.648499,7.5713347 12.8535,7.298 C13.058501,7.0246653 13.1883331,6.73766817 13.243,6.437 C13.2976669,6.13633183 13.2293343,5.83566817 13.038,5.535 Z"/>
</svg>
