<svg xmlns="http://www.w3.org/2000/svg" width="17" height="17" viewBox="0 0 17 17">
  <path fill="#000000" fill-rule="evenodd" d="M15.662,8.2 C15.662,6.20465669 14.9376739,4.44167432 13.489,2.911 C12.0129926,1.43499262 10.2500103,0.697 8.2,0.697 C6.12265628,0.697 4.34600738,1.43499262 2.87,2.911 C1.42132609,4.44167432 0.697,6.20465669 0.697,8.2 C0.697,10.1953433 1.42132609,11.9583257 2.87,13.489 C4.34600738,14.9650074 6.12265628,15.703 8.2,15.703 C10.2500103,15.703 12.0129926,14.9650074 13.489,13.489 C14.9376739,11.9583257 15.662,10.1953433 15.662,8.2 Z M8.2,16.4 C5.93132199,16.4 3.99067473,15.5936747 2.378,13.981 C0.79265874,12.3956587 0,10.468678 0,8.2 C0,5.93132199 0.79265874,4.00434126 2.378,2.419 C3.99067473,0.80632527 5.93132199,0 8.2,0 C10.4413445,0 12.3683253,0.80632527 13.981,2.419 C15.5663413,4.00434126 16.359,5.93132199 16.359,8.2 C16.359,10.468678 15.5663413,12.3956587 13.981,13.981 C12.3683253,15.5936747 10.4413445,16.4 8.2,16.4 Z M2.255,8.241 C2.50100123,7.53032978 2.8973306,6.87433634 3.444,6.273 C3.9906694,5.67166366 4.61249651,5.14550226 5.3095,4.6945 C6.00650348,4.24349775 6.7649959,3.89500123 7.585,3.649 C8.4050041,3.40299877 9.2249959,3.28 10.045,3.28 C10.8650041,3.28 11.5824969,3.4166653 12.1975,3.69 C12.8125031,3.9633347 13.3044982,4.33233101 13.6735,4.797 C14.0425018,5.26166899 14.2679996,5.80149693 14.35,6.4165 C14.4320004,7.03150308 14.3500012,7.68066325 14.104,8.364 C13.8579988,9.07467022 13.4685027,9.73066366 12.9355,10.332 C12.4024973,10.9333363 11.7806702,11.4594977 11.07,11.9105 C10.3593298,12.3615023 9.5940041,12.7099988 8.774,12.956 C7.9539959,13.2020012 7.1340041,13.325 6.314,13.325 C5.4939959,13.325 4.77650307,13.1883347 4.1615,12.915 C3.54649692,12.6416653 3.06133511,12.272669 2.706,11.808 C2.35066489,11.343331 2.12516714,10.8035031 2.0295,10.1885 C1.93383285,9.57349693 2.00899877,8.92433675 2.255,8.241 Z"/>
</svg>
