<svg xmlns="http://www.w3.org/2000/svg" width="24" height="15" viewBox="0 0 24 15">
  <path fill="#000000" fill-rule="evenodd" d="M5.74,7.708 C5.98600123,6.99732978 6.3823306,6.34133634 6.929,5.74 C7.4756694,5.13866366 8.09749651,4.61250226 8.7945,4.1615 C9.49150349,3.71049774 10.2499959,3.36200123 11.07,3.116 C11.8900041,2.86999877 12.7099959,2.747 13.53,2.747 C14.3500041,2.747 15.0674969,2.8836653 15.6825,3.157 C16.2975031,3.4303347 16.7894982,3.79933101 17.1585,4.264 C17.5275018,4.72866899 17.7529996,5.26849692 17.835,5.8835 C17.9170004,6.49850308 17.8350012,7.14766325 17.589,7.831 C17.3429988,8.54167022 16.9535027,9.19766366 16.4205,9.799 C15.8874973,10.4003363 15.2656702,10.9264977 14.555,11.3775 C13.8443298,11.8285023 13.0790041,12.1769988 12.259,12.423 C11.4389959,12.6690012 10.6190041,12.792 9.799,12.792 C8.9789959,12.792 8.26150308,12.6553347 7.6465,12.382 C7.03149692,12.1086653 6.54633511,11.739669 6.191,11.275 C5.83566489,10.810331 5.61016714,10.2705031 5.5145,9.6555 C5.41883286,9.04049693 5.49399877,8.39133675 5.74,7.708 Z M23.329,7.38 C23.329,8.28200451 23.2196678,9.13616264 23.001,9.9425 C22.7823322,10.7488374 22.4885018,11.4799967 22.1195,12.136 C21.7504982,12.7920033 21.3405023,13.352331 20.8895,13.817 C20.4384977,14.281669 19.9943355,14.6096657 19.557,14.801 L19.516,14.596 C20.1446698,14.0219971 20.6366649,13.4138365 20.992,12.7715 C21.3473351,12.1291635 21.6138324,11.4868365 21.7915,10.8445 C21.9691676,10.2021635 22.0784998,9.5871696 22.1195,8.9995 C22.1605002,8.4118304 22.181,7.87200246 22.181,7.38 C22.181,6.86066407 22.1605002,6.30033634 22.1195,5.699 C22.0784998,5.09766366 21.9691676,4.48950308 21.7915,3.8745 C21.6138324,3.25949693 21.3473351,2.63766981 20.992,2.009 C20.6366649,1.38033019 20.1446698,0.77900287 19.516,0.205 L19.557,0 C19.9943355,0.21866776 20.4384977,0.57399754 20.8895,1.066 C21.3405023,1.55800246 21.7436649,2.13882999 22.099,2.8085 C22.4543351,3.47817001 22.7481655,4.2024961 22.9805,4.9815 C23.2128345,5.76050389 23.329,6.5599959 23.329,7.38 Z M3.731,14.801 C3.26633101,14.6096657 2.81533552,14.281669 2.378,13.817 C1.94066448,13.352331 1.54433511,12.7920033 1.189,12.136 C0.83366489,11.4799967 0.54666776,10.7488374 0.328,9.9425 C0.10933224,9.13616264 0,8.28200451 0,7.38 C0,6.5599959 0.10933224,5.76050389 0.328,4.9815 C0.54666776,4.2024961 0.83366489,3.47817001 1.189,2.8085 C1.54433511,2.13882999 1.94749775,1.55800246 2.3985,1.066 C2.84950226,0.57399754 3.29366448,0.21866776 3.731,0 L3.772,0.205 C3.14333019,0.77900287 2.65133511,1.38033019 2.296,2.009 C1.94066489,2.63766981 1.67416755,3.25949693 1.4965,3.8745 C1.31883244,4.48950308 1.2095002,5.09766366 1.1685,5.699 C1.1274998,6.30033634 1.107,6.86066407 1.107,7.38 C1.107,7.87200246 1.1274998,8.41866366 1.1685,9.02 C1.2095002,9.62133634 1.32566571,10.2363302 1.517,10.865 C1.70833429,11.4936698 1.98849816,12.1359967 2.3575,12.792 C2.72650185,13.4480033 3.22533019,14.0766637 3.854,14.678 L3.731,14.801 Z"/>
</svg>
