<svg xmlns="http://www.w3.org/2000/svg" width="56" height="44" viewBox="0 0 56 44">
  <path fill="#ffffff" d="M14.3717277,44 C17.4589878,44 20.0938045,43.0294118 22.276178,41.0882353 C24.4585515,39.1470588 25.5497382,36.7745098 25.5497382,33.9705882 C25.5497382,31.2745098 24.7513089,29.0367647 23.1544503,27.2573529 C21.5575916,25.4779412 19.6413613,24.5882353 17.4057592,24.5882353 C16.447644,24.5882353 15.6492147,24.7230392 15.0104712,24.9926471 C14.3717277,25.2622549 13.8128272,25.5588235 13.3337696,25.8823529 C12.854712,26.2058824 12.3756545,26.502451 11.8965969,26.7720588 C11.4175393,27.0416667 10.8586387,27.1764706 10.2198953,27.1764706 C9.47469459,27.1764706 8.86256545,26.7181373 8.38350785,25.8014706 C7.90445026,24.8848039 7.66492147,23.8333333 7.66492147,22.6470588 C7.66492147,20.5980392 8.14397906,18.6029412 9.10209424,16.6617647 C10.0602094,14.7205882 11.3376963,12.9142157 12.934555,11.2426471 C14.5314136,9.57107843 16.4210297,8.08823529 18.6034031,6.79411765 C20.7857766,5.5 23.1012216,4.52941176 25.5497382,3.88235294 L25.5497382,3.88235294 L25.5497382,0 C22.1431065,0.215686275 18.8961606,1.05147059 15.8089005,2.50735294 C12.7216405,3.96323529 10.0069808,5.8504902 7.66492147,8.16911765 C5.32286213,10.4877451 3.45986038,13.2377451 2.07591623,16.4191176 C0.691972077,19.6004902 0,23.0245098 0,26.6911765 C0,29.0637255 0.372600349,31.3014706 1.11780105,33.4044118 C1.86300175,35.5073529 2.87434555,37.3406863 4.15183246,38.9044118 C5.42931937,40.4681373 6.94633508,41.7083333 8.70287958,42.625 C10.4594241,43.5416667 12.3490401,44 14.3717277,44 Z M43.9136126,44 C47.0008726,44 49.6356894,43.0294118 51.8180628,41.0882353 C54.0004363,39.1470588 55.091623,36.7745098 55.091623,33.9705882 C55.091623,31.2745098 54.2931937,29.0367647 52.6963351,27.2573529 C51.0994764,25.4779412 49.2364747,24.5882353 47.1073298,24.5882353 C46.0427574,24.5882353 45.1910995,24.7230392 44.552356,24.9926471 C43.9136126,25.2622549 43.354712,25.5588235 42.8756545,25.8823529 C42.3965969,26.2058824 41.9175393,26.502451 41.4384817,26.7720588 C40.9594241,27.0416667 40.4005236,27.1764706 39.7617801,27.1764706 C39.0165794,27.1764706 38.4310646,26.7181373 38.0052356,25.8014706 C37.5794066,24.8848039 37.3664921,23.8333333 37.3664921,22.6470588 C37.3664921,18.5490196 39.069808,14.747549 42.4764398,11.2426471 C45.8830716,7.7377451 50.0881326,5.28431373 55.091623,3.88235294 L55.091623,3.88235294 L55.091623,0 C51.6849913,0.215686275 48.4380454,1.05147059 45.3507853,2.50735294 C42.2635253,3.96323529 39.5488656,5.8504902 37.2068063,8.16911765 C34.8647469,10.4877451 33.0017452,13.2377451 31.617801,16.4191176 C30.2338569,19.6004902 29.5418848,23.0245098 29.5418848,26.6911765 C29.5418848,29.0637255 29.9144852,31.3014706 30.6596859,33.4044118 C31.4048866,35.5073529 32.4162304,37.3406863 33.6937173,38.9044118 C34.9712042,40.4681373 36.4882199,41.7083333 38.2447644,42.625 C40.0013089,43.5416667 41.890925,44 43.9136126,44 Z"/>
</svg>
