<svg xmlns="http://www.w3.org/2000/svg" width="56" height="44" viewBox="0 0 56 44">
  <path fill="#ffffff"  d="M11.9267016,0 C13.9493892,0 15.8390052,0.458333333 17.5955497,1.375 C19.3520942,2.29166667 20.8957243,3.53186275 22.2264398,5.09558824 C23.5571553,6.65931373 24.5951134,8.49264706 25.3403141,10.5955882 C26.0855148,12.6985294 26.4581152,14.9362745 26.4581152,17.3088235 C26.4581152,21.0833333 25.7661431,24.5343137 24.382199,27.6617647 C22.9982548,30.7892157 21.1352531,33.5392157 18.7931937,35.9117647 C16.4511344,38.2843137 13.7364747,40.1715686 10.6492147,41.5735294 C7.56195462,42.9754902 4.31500873,43.7843137 0.908376963,44 L0.908376963,44 L0.908376963,40.1176471 L1.46103462,39.9575466 C6.22225813,38.5325083 10.2431,36.1324437 13.5235602,32.7573529 C16.930192,29.252451 18.6335079,25.4509804 18.6335079,21.3529412 C18.6335079,20.1666667 18.4205934,19.1151961 17.9947644,18.1985294 C17.5689354,17.2818627 16.9834206,16.8235294 16.2382199,16.8235294 C15.5994764,16.8235294 15.0405759,16.9583333 14.5615183,17.2279412 C14.0824607,17.497549 13.6034031,17.7941176 13.1243455,18.1176471 C12.645288,18.4411765 12.0863874,18.7377451 11.447644,19.0073529 C10.8089005,19.2769608 9.95724258,19.4117647 8.89267016,19.4117647 C6.76352531,19.4117647 4.90052356,18.5220588 3.30366492,16.7426471 C1.70680628,14.9632353 0.908376963,12.7254902 0.908376963,10.0294118 C0.908376963,7.2254902 1.97294939,4.85294118 4.10209424,2.91176471 C6.23123909,0.970588235 8.83944154,0 11.9267016,0 Z M41.6282723,0 C43.6509599,0 45.5405759,0.458333333 47.2971204,1.375 C49.0536649,2.29166667 50.5706806,3.53186275 51.8481675,5.09558824 C53.1256545,6.65931373 54.1369983,8.49264706 54.882199,10.5955882 C55.6273997,12.6985294 56,14.9362745 56,17.3088235 C56,21.0833333 55.3080279,24.5343137 53.9240838,27.6617647 C52.5401396,30.7892157 50.6771379,33.5392157 48.3350785,35.9117647 C45.9930192,38.2843137 43.2783595,40.1715686 40.1910995,41.5735294 C37.1038394,42.9754902 33.8568935,43.7843137 30.4502618,44 L30.4502618,44 L30.4502618,40.1176471 L31.0596186,39.9491422 C33.2837618,39.3065768 35.3960878,38.3921569 37.3965969,37.2058824 C39.5789703,35.9117647 41.4685864,34.4289216 43.065445,32.7573529 C44.6623037,31.0857843 45.9397906,29.2794118 46.8979058,27.3382353 C47.8560209,25.3970588 48.3350785,23.4019608 48.3350785,21.3529412 C48.3350785,20.1666667 48.0955497,19.1151961 47.6164921,18.1985294 C47.1374346,17.2818627 46.5253054,16.8235294 45.7801047,16.8235294 C45.1413613,16.8235294 44.5824607,16.9583333 44.1034031,17.2279412 C43.6243455,17.497549 43.145288,17.7941176 42.6662304,18.1176471 C42.1871728,18.4411765 41.6282723,18.7377451 40.9895288,19.0073529 C40.3507853,19.2769608 39.4991274,19.4117647 38.434555,19.4117647 C36.3054101,19.4117647 34.4424084,18.5220588 32.8455497,16.7426471 C31.2486911,14.9632353 30.4502618,12.7254902 30.4502618,10.0294118 C30.4502618,7.2254902 31.5414485,4.85294118 33.723822,2.91176471 C35.9061955,0.970588235 38.5410122,0 41.6282723,0 Z"/>
</svg>
