<svg xmlns="http://www.w3.org/2000/svg" width="64" height="40" viewBox="0 0 64 40">
  <g fill="#FFFFFF">
    <path fill-opacity=".5" d="M63.9225621,21.980552 C61.3368026,15.553759 57.0114118,10.08062 51.4142663,6.15249832 C45.6786203,2.12749099 38.9653458,0 31.9999453,0 C25.0345448,0 18.3212702,2.12749099 12.5856242,6.15249832 C6.98822876,10.0804911 2.66296293,15.553759 0.077328472,21.980552 C-0.0256719049,22.2366806 -0.0257969054,22.5245033 0.0770784711,22.7806319 C0.179953848,23.0367605 0.37745457,23.2404523 0.62608048,23.3466143 L27.7895549,34.9435209 C27.7573048,35.1608695 27.7405547,35.3833716 27.7405547,35.6097388 C27.7405547,38.0304636 29.6514367,40 32.0000703,40 C34.3487039,40 36.2595859,38.0304636 36.2595859,35.6097388 C36.2595859,35.3824697 36.2427108,35.1591946 36.2102107,34.941073 L63.3739351,23.3466143 C63.622436,23.2405812 63.8200617,23.0368894 63.9229371,22.7806319 C64.0258125,22.5245033 64.0256875,22.2366806 63.9225621,21.980552 Z"/>
    <path fill-opacity=".8" d="M63.9225621,21.980552 C61.3368026,15.553759 57.0114118,10.08062 51.4142663,6.15249832 C45.6786203,2.12749099 38.9653458,0 31.9999453,0 C25.0345448,0 18.3212702,2.12749099 12.5856242,6.15249832 C6.98822876,10.0804911 2.66296293,15.553759 0.077328472,21.980552 C-0.0256719049,22.2366806 -0.0257969054,22.5245033 0.0770784711,22.7806319 C0.179953848,23.0367605 0.37745457,23.2404523 0.62608048,23.3466143 L27.7895549,34.9435209 C27.7573048,35.1608695 27.7405547,35.3833716 27.7405547,35.6097388 C27.7405547,38.0304636 29.6514367,40 32.0000703,40 C34.3487039,40 36.2595859,38.0304636 36.2595859,35.6097388 C36.2595859,35.3824697 36.2427108,35.1591946 36.2102107,34.941073 L63.3739351,23.3466143 C63.622436,23.2405812 63.8200617,23.0368894 63.9229371,22.7806319 C64.0258125,22.5245033 64.0256875,22.2366806 63.9225621,21.980552 Z M50.2727622,7.88046472 C51.6943924,8.87843875 53.0286472,9.98218824 54.2674018,11.1806332 L42.6901094,23.1135476 C41.6092305,22.1298745 40.405601,21.3005485 39.1107213,20.6476009 L45.3789942,5.05042371 C47.0758755,5.84161382 48.7128814,6.78599152 50.2727622,7.88046472 Z M33.013949,2.10790771 C36.6338372,2.22231527 40.1694752,2.94844252 43.5049874,4.24957081 L37.2362144,19.8480364 C35.8914595,19.3752033 34.4737043,19.0830002 33.013949,18.989722 L33.013949,2.10790771 Z M33.013949,21.0833288 C34.2022033,21.170294 35.3568326,21.4101891 36.4574616,21.7858788 L33.013949,30.3547214 L33.013949,21.0833288 Z M30.9856916,2.10790771 L30.9856916,18.989722 C29.5258112,19.0831291 28.108306,19.3752033 26.7635511,19.8480364 L20.4946532,4.24957081 C23.8300404,2.94844252 27.3658033,2.22231527 30.9856916,2.10790771 Z M30.9856916,21.0833288 L30.9856916,30.3535619 L27.542429,21.7857499 C28.642933,21.4100603 29.7974372,21.170294 30.9856916,21.0833288 Z M13.7271284,7.88059355 C15.2868841,6.78599152 16.9238901,5.84161382 18.6210213,5.05042371 L24.8894193,20.6474721 C23.5944145,21.3004197 22.3906601,22.1297456 21.3099062,23.1135476 L9.7322388,11.180762 C10.9709933,9.98231708 12.3052482,8.87843875 13.7271284,7.88059355 Z M2.3538368,21.8216956 C3.83859224,18.4322428 5.84734959,15.3440118 8.29773355,12.6586551 L19.8765259,24.5926002 C18.9385225,25.6920981 18.1341445,26.9299672 17.4915172,28.2841765 L2.3538368,21.8216956 Z M19.3678991,29.0854159 C19.900776,27.9874641 20.5577784,26.9799561 21.3152812,26.0756468 L27.6773045,32.6329521 L19.3678991,29.0854159 Z M22.7480364,24.59595 C23.6361647,23.8021831 24.6167933,23.1265601 25.6677971,22.5844126 L29.1125597,31.1557031 L22.7480364,24.59595 Z M31.9998203,37.9094853 C30.7695658,37.9094853 29.7686871,36.8778847 29.7686871,35.6098677 C29.7686871,34.3418506 30.7695658,33.31025 31.9998203,33.31025 C33.2300748,33.31025 34.2309535,34.3418506 34.2309535,35.6098677 C34.2309535,36.8778847 33.2300748,37.9094853 31.9998203,37.9094853 Z M34.8875809,31.1553166 L38.3320935,22.5844126 C39.3828473,23.1265601 40.3636009,23.802312 41.2517291,24.5958212 L34.8875809,31.1553166 Z M36.3269611,32.6285716 L42.6844844,26.0757757 C43.4417372,26.9795696 44.0983646,27.9865623 44.6311165,29.0839987 L36.3269611,32.6285716 Z M46.5078734,28.283017 C45.865246,26.9293231 45.0612431,25.6918404 44.1233647,24.5927291 L55.701907,12.6585263 C58.152291,15.3440118 60.1611733,18.4322428 61.6458038,21.8215667 L46.5078734,28.283017 Z"/>
  </g>
</svg>
