<svg xmlns="http://www.w3.org/2000/svg" width="43" height="49" viewBox="0 0 43 49">
  <g fill="none" fill-rule="evenodd">
    <rect width="3" height="18" x="10" y="27.41" fill="#FFFFFF" fill-opacity=".8"/>
    <rect width="3" height="26" x="20" y="19.41" fill="#FFFFFF" fill-opacity=".8"/>
    <rect width="3" height="26" x="30" y="19.41" fill="#FFFFFF" fill-opacity=".8"/>
    <path stroke="#FFFFFF" stroke-opacity=".8" stroke-width="3" d="M21.5,9.90999985 L11.5,9.90999985 L11.5,25.9099998 L1.5,25.9099998 L1.5,46.9099998 L41.5,46.9099998 L41.5,1.90999985 L31.5,1.90999985 L31.5,17.9099998 L21.5,17.9099998 L21.5,9.90999985 Z"/>
    <path fill="#FFFFFF" fill-opacity=".5" d="M30,16.4099998 L30,0.409999847 L43,0.409999847 L43,48.4099998 L32,48.4099998 L23,48.4099998 L13,48.4099998 L0,48.4099998 L0,24.4099998 L10,24.4099998 L10,8.40999985 L23,8.40999985 L23,16.4099998 L30,16.4099998 Z"/>
  </g>
</svg>
