<svg xmlns="http://www.w3.org/2000/svg" width="64" height="55" viewBox="0 0 64 55">
  <g fill="#FFFFFF" fill-rule="evenodd" transform="translate(0 .3)">
    <polygon fill-opacity=".5" points="11.733 54.137 11.733 19.752 51.544 19.752 51.544 54.137"/>
    <path fill-opacity=".84" fill-rule="nonzero" d="M11.7333333,54.1369234 L11.7333333,19.7520177 L51.5443532,19.7520177 L51.5443532,54.1369234 L11.7333333,54.1369234 Z M14.7979417,51.0110229 L48.4797448,51.0110229 L48.4797448,22.8779183 L14.7979417,22.8779183 L14.7979417,51.0110229 Z"/>
    <path fill-opacity=".84" fill-rule="nonzero" d="M31.8631273,4.66999603 C31.1092351,5.22719183 30.2610167,5.84283418 29.3325608,6.50294536 C26.5401605,8.48827873 23.5908953,10.473679 20.6147888,12.3292004 C18.4723744,13.6649375 16.3925082,14.884485 14.4002217,15.9619958 C8.45093849,19.1796138 3.58945242,20.9893891 0,20.9893891 L0,17.2383085 C2.81408396,17.2383085 7.22865062,15.5949069 12.6774578,12.647967 C14.5992047,11.6086069 16.6150415,10.4266037 18.6968284,9.12866616 C21.6045401,7.31578704 24.4938347,5.37075812 27.2296402,3.42566233 C28.1870296,2.74498015 29.0563547,2.11326956 29.8209189,1.54697319 C30.2774735,1.20881294 30.5961151,0.968791144 30.7601969,0.843328319 L31.8631119,0 L32.9660325,0.843320781 C33.1301166,0.968783585 33.4487627,1.20880537 33.9053239,1.5469656 C34.6698991,2.11326196 35.5392371,2.74497253 36.496641,3.42565471 C39.232488,5.37075053 42.1218288,7.3157795 45.0295903,9.12865873 C47.1114614,10.4266265 49.1273795,11.6086546 51.0492028,12.6480321 C56.4980616,15.5949322 60.9126852,17.2383085 63.7268517,17.2383085 L63.7268517,20.9893891 C60.1373365,20.9893891 55.2757948,19.1796442 49.3264698,15.9620775 C47.3341043,14.8845488 45.2541545,13.6649759 43.1116537,12.3292078 C40.1354966,10.4736865 37.1861843,8.48828631 34.3937418,6.50295298 C33.4652676,5.8428388 32.6170331,5.22719384 31.8631273,4.66999603 Z"/>
    <path fill-opacity=".8" d="M20.5366507,37.920456 L22.6076172,37.920456 C22.4829856,38.2014745 22.4131675,38.5131268 22.4131675,38.8413463 C22.4131675,39.0251493 22.5592344,39.1745673 22.7392919,39.1745673 L26.3199234,39.1745673 C26.4267943,39.265531 28.1887847,41.3423793 30.533512,41.2829872 C31.0516364,41.2698584 31.5670048,41.1926487 32.0655311,41.0107213 C32.0692057,41.112313 32.0685933,42.7302791 29.4378565,43.3695258 C27.9487081,43.7318177 26.91889,44.3616866 26.3967847,45.3322787 C25.9157129,46.2262863 25.9941053,47.1456136 26.0945455,47.6441948 C24.9379522,47.8802002 24.3971675,48.1562173 24.1503541,48.4137915 L38.1507368,48.4137915 C37.8950431,48.1459018 37.3224115,47.8586315 36.0711962,47.617312 C35.3353493,47.4750835 34.4650718,47.3694281 33.5170144,47.303159 L32.3193876,45.8739973 C34.6840191,44.3244884 35.1292632,42.3623607 35.1804019,42.1876228 C35.4801914,42.0407055 36.1722488,41.653719 36.8312344,40.938513 C37.1319426,40.6118564 37.7848038,40.6562442 38.4759426,40.7025075 C39.7642105,40.7897201 41.5118086,40.907254 42.0409569,38.5046868 L44.1848038,38.5046868 C44.3648612,38.5046868 44.5109282,38.355894 44.5109282,38.1717784 C44.5109282,36.6310221 43.2829856,35.3772234 41.7736268,35.3772234 C41.7108517,35.3772234 41.6489952,35.3803493 41.587445,35.3847255 C41.1103541,34.7395397 40.3708325,34.3594302 39.5706794,34.3594302 C38.1764593,34.3594302 37.0416077,35.5175763 37.0416077,36.9411114 C37.0416077,37.1249143 37.1879809,37.2740198 37.3680383,37.2740198 L39.1814737,37.2740198 C39.0877703,37.5562886 39.0363254,37.857938 39.0363254,38.1717784 C39.0363254,38.355894 39.1820861,38.5046868 39.3624498,38.5046868 L41.0129761,38.5046868 C40.453512,38.9373115 39.8824115,38.8419715 39.0090718,38.6956793 C38.589244,38.6253466 38.1139904,38.5459487 37.5646316,38.5153149 C36.282488,38.4456073 35.3944498,39.0889176 34.8310048,39.5446739 C34.1925359,38.4981224 32.9440766,37.4878314 31.0311196,36.4684752 C30.1835024,36.01647 29.6601722,35.5091364 29.4387751,34.9274063 L34.0253397,34.9274063 C34.2057033,34.9274063 34.3517703,34.7783008 34.3517703,34.5948105 C34.3517703,33.8864814 34.21489,33.1828412 33.9546029,32.5314035 L36.5522679,32.5314035 C36.7326316,32.5314035 36.8783923,32.3819855 36.8783923,32.1981825 C36.8783923,30.5148851 35.5368421,29.1451155 33.8875407,29.1451155 C33.0971866,29.1451155 32.3778756,29.4605189 31.8422967,29.9737917 C31.6919426,29.8772014 31.5373014,29.7893636 31.3795981,29.7093406 C31.3275407,29.2066957 31.1618756,28.7418743 30.9101627,28.3417591 L32.8935502,28.3417591 C33.0736077,28.3417591 33.2196746,28.1926536 33.2196746,28.0088507 C33.2196746,26.7909998 32.2492632,25.800402 31.0565359,25.800402 C30.2236172,25.800402 29.4810335,26.2808529 29.1196938,27.0238794 C28.8875789,26.9641747 28.6453589,26.9326031 28.395177,26.9326031 C26.7458756,26.9326031 25.4043254,28.3020601 25.4043254,29.9859827 C25.4043254,30.1632213 25.5412057,30.3076379 25.7129952,30.3173282 C25.6355215,30.3795336 25.5586603,30.4436146 25.484555,30.5101963 C25.1167847,30.3063875 24.7061435,30.1982314 24.2823349,30.1982314 C22.8881148,30.1982314 21.7535694,31.3563775 21.7535694,32.7802252 C21.7535694,32.9640282 21.8996364,33.112821 22.08,33.112821 L23.8765933,33.112821 C23.7458373,33.5845194 23.6747943,34.081225 23.6747943,34.5948105 C23.6747943,34.7783008 23.820555,34.9274063 24.0009187,34.9274063 L27.092823,34.9274063 C27.2471579,35.8820563 27.7496651,37.1455453 29.1766507,38.2480504 C29.5254354,38.5171904 29.8788134,38.7478819 30.2040191,38.9545039 C29.9458756,39.0370277 29.2164593,39.0557831 27.4771292,37.9198308 C27.0701627,37.6538167 26.6586029,37.4628242 26.2522488,37.3487288 C25.9521531,37.0061301 25.551311,36.7569959 25.0968804,36.6519656 C24.7229856,35.6735587 23.7816651,35.0058664 22.7392919,35.0058664 C21.3450718,35.0058664 20.2105263,36.1636999 20.2105263,37.587235 C20.2105263,37.7713506 20.3562871,37.920456 20.5366507,37.920456"/>
  </g>
</svg>
