<svg xmlns="http://www.w3.org/2000/svg" width="60" height="51" viewBox="0 0 60 51">
  <g fill="#fff" fill-rule="evenodd">
    <path fill-rule="nonzero" d="M11.1950438,50.1183533 L11.1950438,18.5145798 L48.5178749,18.5145798 L48.5178749,50.1183533 L11.1950438,50.1183533 Z M14.0681141,47.245283 L45.6448045,47.245283 L45.6448045,21.3876501 L14.0681141,21.3876501 L14.0681141,47.245283 Z"/>
    <path fill-rule="nonzero" d="M29.8716819,5.1378477 C29.1649079,5.64997619 28.3697032,6.21582394 27.4992757,6.82254377 C24.8814005,8.6472987 22.1164643,10.4721151 19.3263645,12.1775576 C17.317851,13.4052571 15.3679765,14.5261647 13.5002079,15.5165239 C7.92275484,18.4738934 3.36511164,20.1372899 0,20.1372899 L0,16.6896055 C2.63820372,16.6896055 6.77685996,15.1791261 11.8851167,12.4705416 C13.6867544,11.5152474 15.5766014,10.4288473 17.5282766,9.2358901 C20.2542563,7.5696409 22.96297,5.7819305 25.5277877,3.99415863 C26.4253402,3.36853163 27.2403325,2.78791528 27.9571114,2.26742229 C28.3851314,1.95661324 28.6838579,1.73600497 28.8376846,1.62068987 L29.8716674,0.845571933 L30.9056555,1.62068294 C31.0594843,1.73599802 31.358215,1.95660628 31.7862411,2.26741532 C32.5030304,2.78790829 33.3180348,3.36852463 34.2156009,3.99415163 C36.7804575,5.78192353 39.4892145,7.56963397 42.2152409,9.23588327 C44.1669951,10.4288684 46.0569183,11.5152912 47.8586276,12.4706014 C52.9669328,15.1791493 57.1056424,16.6896055 59.7439234,16.6896055 L59.7439234,20.1372899 C56.378753,20.1372899 51.8210576,18.4739214 46.2435654,15.5165991 C44.3757228,14.5262234 42.4257698,13.4052925 40.4171754,12.1775644 C37.627028,10.472122 34.8620478,8.64730568 32.2441329,6.82255077 C31.3736883,6.21582818 30.5784685,5.64997804 29.8716819,5.1378477 Z"/>
    <path d="M19.25311,35.6989322 L21.1946411,35.6989322 C21.077799,35.9572213 21.0123445,36.2436664 21.0123445,36.5453388 C21.0123445,36.7142753 21.1492823,36.8516081 21.3180861,36.8516081 L24.6749282,36.8516081 C24.7751196,36.9352144 26.4269856,38.8440823 28.6251675,38.789494 C29.1109091,38.7774271 29.594067,38.7064623 30.0614354,38.5392496 C30.0648804,38.6326244 30.0643062,40.1197256 27.5979904,40.7072684 C26.2019139,41.0402573 25.2364593,41.619181 24.7469856,42.5112693 C24.2959809,43.3329674 24.3694737,44.1779374 24.4636364,44.6361921 C23.3793301,44.8531089 22.8723445,45.106801 22.6409569,45.343542 L35.7663158,45.343542 C35.5266029,45.0973199 34.9897608,44.8332847 33.8167464,44.6114837 C33.12689,44.480759 32.3110048,44.3836492 31.422201,44.3227401 L30.2994258,43.0091724 C32.5162679,41.5849914 32.9336842,39.7815652 32.9816268,39.6209605 C33.2626794,39.4859262 33.9114833,39.1302401 34.5292823,38.4728816 C34.8111962,38.1726458 35.4232536,38.2134434 36.0711962,38.2559648 C37.2789474,38.3361235 38.9173206,38.4441509 39.4133971,36.2359091 L41.4232536,36.2359091 C41.5920574,36.2359091 41.7289952,36.0991509 41.7289952,35.9299271 C41.7289952,34.5137907 40.577799,33.3614022 39.1627751,33.3614022 C39.1039234,33.3614022 39.045933,33.3642753 38.9882297,33.3682976 C38.5409569,32.7752959 37.8476555,32.4259305 37.097512,32.4259305 C35.7904306,32.4259305 34.7265072,33.4904031 34.7265072,34.7987993 C34.7265072,34.9677358 34.8637321,35.1047813 35.0325359,35.1047813 L36.7326316,35.1047813 C36.6447847,35.3642196 36.596555,35.6414708 36.596555,35.9299271 C36.596555,36.0991509 36.7332057,36.2359091 36.9022967,36.2359091 L38.4496651,36.2359091 C37.9251675,36.633542 37.3897608,36.5459134 36.5710048,36.4114537 C36.1774163,36.3468096 35.731866,36.2738336 35.2168421,36.2456775 C34.0148325,36.1816081 33.1822967,36.7728859 32.654067,37.1917796 C32.0555024,36.2298756 30.8850718,35.3012993 29.0916746,34.3643911 C28.2970335,33.9489451 27.8064115,33.4826458 27.5988517,32.9479674 L31.898756,32.9479674 C32.0678469,32.9479674 32.2047847,32.810922 32.2047847,32.6422727 C32.2047847,31.991235 32.0764593,31.3445069 31.8324402,30.745759 L34.2677512,30.745759 C34.4368421,30.745759 34.5734928,30.6084262 34.5734928,30.4394897 C34.5734928,28.8923413 33.3157895,27.6333619 31.7695694,27.6333619 C31.0286124,27.6333619 30.3542584,27.9232547 29.8521531,28.3950129 C29.7111962,28.306235 29.5662201,28.2255017 29.4183732,28.1519511 C29.3695694,27.6899614 29.2142584,27.2627358 28.9782775,26.8949828 L30.8377033,26.8949828 C31.0065072,26.8949828 31.143445,26.7579374 31.143445,26.5890009 C31.143445,25.4696527 30.2336842,24.5591767 29.1155024,24.5591767 C28.3346411,24.5591767 27.6384689,25.0007676 27.2997129,25.6836964 C27.0821053,25.6288208 26.8550239,25.5998027 26.6204785,25.5998027 C25.0742584,25.5998027 23.816555,26.8584949 23.816555,28.4062178 C23.816555,28.5691209 23.9448804,28.7018568 24.105933,28.7107633 C24.0333014,28.7679374 23.961244,28.8268353 23.8917703,28.8880317 C23.5469856,28.7007075 23.1620096,28.6012993 22.764689,28.6012993 C21.4576077,28.6012993 20.3939713,29.6657719 20.3939713,30.9744554 C20.3939713,31.1433919 20.5309091,31.2801501 20.7,31.2801501 L22.3843062,31.2801501 C22.2617225,31.7136964 22.1951196,32.1702273 22.1951196,32.6422727 C22.1951196,32.810922 22.3317703,32.9479674 22.5008612,32.9479674 L25.3995215,32.9479674 C25.5442105,33.8254031 26.015311,34.9866981 27.35311,36.00003 C27.6800957,36.2474014 28.0113876,36.459434 28.3162679,36.6493439 C28.0742584,36.725193 27.3904306,36.7424314 25.7598086,35.6983576 C25.3782775,35.4538593 24.9924402,35.2783148 24.6114833,35.1734477 C24.3301435,34.8585592 23.9543541,34.6295755 23.5283254,34.5330403 C23.177799,33.6337693 22.295311,33.0200815 21.3180861,33.0200815 C20.0110048,33.0200815 18.9473684,34.0842667 18.9473684,35.392663 C18.9473684,35.5618868 19.0840191,35.6989322 19.25311,35.6989322"/>
  </g>
</svg>
