<svg xmlns="http://www.w3.org/2000/svg" width="40" height="34" viewBox="0 0 40 34">
  <g fill="#FFFFFF" fill-rule="evenodd">
    <path fill-rule="nonzero" d="M7.46336252,33.4122356 L7.46336252,12.3430532 L32.3452499,12.3430532 L32.3452499,33.4122356 L7.46336252,33.4122356 Z M9.37874274,31.4968553 L30.4298697,31.4968553 L30.4298697,14.2584334 L9.37874274,14.2584334 L9.37874274,31.4968553 Z"/>
    <path fill-rule="nonzero" d="M19.9144546,3.4252318 C19.443272,3.76665079 18.9131355,4.14388262 18.3328505,4.54836251 C16.5876003,5.7648658 14.7443096,6.98141007 12.884243,8.11837172 C11.545234,8.93683807 10.2453176,9.68410982 9.00013859,10.3443493 C5.28183656,12.315929 2.24340776,13.4248599 0,13.4248599 L0,11.1264037 C1.75880248,11.1264037 4.51790664,10.1194174 7.92341114,8.31369441 C9.12450295,7.67683162 10.3844009,6.9525649 11.6855178,6.15726006 C13.5028376,5.04642727 15.3086467,3.85462033 17.0185251,2.66277242 C17.6168935,2.24568775 18.1602217,1.85861019 18.6380743,1.51161486 C18.9234209,1.30440883 19.1225719,1.15733665 19.225123,1.08045992 L19.9144449,0.563714622 L20.6037703,1.0804553 C20.7063229,1.15733201 20.9054767,1.30440419 21.1908274,1.51161021 C21.668687,1.85860553 22.2120232,2.24568309 22.8104006,2.66276775 C24.520305,3.85461568 26.326143,5.04642265 28.1434939,6.15725551 C29.4446634,6.95257893 30.7046122,7.67686081 31.9057517,8.31373427 C35.3112885,10.1194329 38.0704282,11.1264037 39.8292823,11.1264037 L39.8292823,13.4248599 C37.5858353,13.4248599 34.5473717,12.3159476 30.8290436,10.3443994 C29.5838152,9.68414891 28.2838465,8.93686164 26.9447836,8.11837628 C25.0846854,6.98141469 23.2413652,5.76487045 21.4960886,4.54836718 C20.9157922,4.14388545 20.3856457,3.76665203 19.9144546,3.4252318 Z"/>
    <path d="M12.8354067,23.7992882 L14.1297608,23.7992882 C14.051866,23.9714808 14.0082297,24.1624443 14.0082297,24.3635592 C14.0082297,24.4761835 14.0995215,24.5677387 14.2120574,24.5677387 L16.4499522,24.5677387 C16.5167464,24.6234763 17.6179904,25.8960549 19.083445,25.8596627 C19.4072727,25.8516181 19.729378,25.8043082 20.0409569,25.692833 C20.0432536,25.7550829 20.0428708,26.7464837 18.3986603,27.138179 C17.4679426,27.3601715 16.8243062,27.7461206 16.4979904,28.3408462 C16.1973206,28.8886449 16.2463158,29.4519583 16.3090909,29.7574614 C15.5862201,29.9020726 15.2482297,30.0712007 15.0939713,30.229028 L23.8442105,30.229028 C23.6844019,30.0648799 23.3265072,29.8888565 22.5444976,29.7409891 C22.0845933,29.6538393 21.5406699,29.5890995 20.948134,29.5484934 L20.1996172,28.6727816 C21.677512,27.7233276 21.9557895,26.5210435 21.9877512,26.4139737 C22.1751196,26.3239508 22.6076555,26.0868268 23.0195215,25.6485878 C23.2074641,25.4484305 23.6155024,25.4756289 24.0474641,25.5039766 C24.8526316,25.5574157 25.9448804,25.629434 26.2755981,24.1572727 L27.6155024,24.1572727 C27.7280383,24.1572727 27.8193301,24.0661006 27.8193301,23.9532847 C27.8193301,23.0091938 27.051866,22.2409348 26.1085167,22.2409348 C26.0692823,22.2409348 26.030622,22.2428502 25.9921531,22.2455317 C25.6939713,21.8501973 25.2317703,21.617287 24.7316746,21.617287 C23.8602871,21.617287 23.1510048,22.3269354 23.1510048,23.1991995 C23.1510048,23.3118239 23.242488,23.4031875 23.3550239,23.4031875 L24.4884211,23.4031875 C24.4298565,23.5761464 24.3977033,23.7609806 24.3977033,23.9532847 C24.3977033,24.0661006 24.4888038,24.1572727 24.6015311,24.1572727 L25.63311,24.1572727 C25.283445,24.4223613 24.9265072,24.3639423 24.3806699,24.2743025 C24.1182775,24.2312064 23.821244,24.1825557 23.4778947,24.163785 C22.676555,24.121072 22.1215311,24.5152573 21.769378,24.7945197 C21.3703349,24.1532504 20.5900478,23.5341995 19.3944498,22.9095941 C18.864689,22.6326301 18.5376077,22.3217639 18.3992344,21.9653116 L21.2658373,21.9653116 C21.3785646,21.9653116 21.4698565,21.873948 21.4698565,21.7615152 C21.4698565,21.32749 21.3843062,20.8963379 21.2216268,20.4971727 L22.8451675,20.4971727 C22.9578947,20.4971727 23.0489952,20.4056175 23.0489952,20.2929931 C23.0489952,19.2615609 22.2105263,18.4222413 21.1797129,18.4222413 C20.6857416,18.4222413 20.2361722,18.6155031 19.9014354,18.9300086 C19.8074641,18.8708233 19.7108134,18.8170011 19.6122488,18.7679674 C19.5797129,18.4599743 19.4761722,18.1751572 19.3188517,17.9299886 L20.5584689,17.9299886 C20.6710048,17.9299886 20.7622967,17.8386249 20.7622967,17.7260006 C20.7622967,16.9797684 20.1557895,16.3727844 19.4103349,16.3727844 C18.8897608,16.3727844 18.4256459,16.6671784 18.1998086,17.1224643 C18.0547368,17.0858805 17.9033493,17.0665352 17.7469856,17.0665352 C16.7161722,17.0665352 15.8777033,17.9056632 15.8777033,18.9374786 C15.8777033,19.0460806 15.9632536,19.1345712 16.070622,19.1405089 C16.022201,19.1786249 15.9741627,19.2178902 15.9278469,19.2586878 C15.6979904,19.133805 15.4413397,19.0675329 15.1764593,19.0675329 C14.3050718,19.0675329 13.5959809,19.7771812 13.5959809,20.6496369 C13.5959809,20.7622613 13.6872727,20.8534334 13.8,20.8534334 L14.9228708,20.8534334 C14.8411483,21.1424643 14.7967464,21.4468182 14.7967464,21.7615152 C14.7967464,21.873948 14.8878469,21.9653116 15.0005742,21.9653116 L16.9330144,21.9653116 C17.0294737,22.5502687 17.3435407,23.3244654 18.2354067,24.00002 C18.4533971,24.1649342 18.6742584,24.3062893 18.877512,24.4328959 C18.7161722,24.483462 18.2602871,24.4949543 17.1732057,23.7989051 C16.9188517,23.6359062 16.6616268,23.5188765 16.4076555,23.4489651 C16.2200957,23.2390395 15.9695694,23.0863836 15.6855502,23.0220269 C15.451866,22.4225129 14.8635407,22.0133877 14.2120574,22.0133877 C13.3406699,22.0133877 12.6315789,22.7228445 12.6315789,23.5951086 C12.6315789,23.7079245 12.7226794,23.7992882 12.8354067,23.7992882"/>
  </g>
</svg>
