<svg xmlns="http://www.w3.org/2000/svg" width="148" height="51" viewBox="0 0 148 51">
  <g fill="#FFFFFF" fill-rule="evenodd">
    <path fill-rule="nonzero" d="M11.1950438,50.1183533 L11.1950438,18.5145798 L48.5178749,18.5145798 L48.5178749,50.1183533 L11.1950438,50.1183533 Z M14.0681141,47.245283 L45.6448045,47.245283 L45.6448045,21.3876501 L14.0681141,21.3876501 L14.0681141,47.245283 Z"/>
    <path fill-rule="nonzero" d="M29.8716819,5.1378477 C29.1649079,5.64997619 28.3697032,6.21582394 27.4992757,6.82254377 C24.8814005,8.6472987 22.1164643,10.4721151 19.3263645,12.1775576 C17.317851,13.4052571 15.3679765,14.5261647 13.5002079,15.5165239 C7.92275484,18.4738934 3.36511164,20.1372899 0,20.1372899 L0,16.6896055 C2.63820372,16.6896055 6.77685996,15.1791261 11.8851167,12.4705416 C13.6867544,11.5152474 15.5766014,10.4288473 17.5282766,9.2358901 C20.2542563,7.5696409 22.96297,5.7819305 25.5277877,3.99415863 C26.4253402,3.36853163 27.2403325,2.78791528 27.9571114,2.26742229 C28.3851314,1.95661324 28.6838579,1.73600497 28.8376846,1.62068987 L29.8716674,0.845571933 L30.9056555,1.62068294 C31.0594843,1.73599802 31.358215,1.95660628 31.7862411,2.26741532 C32.5030304,2.78790829 33.3180348,3.36852463 34.2156009,3.99415163 C36.7804575,5.78192353 39.4892145,7.56963397 42.2152409,9.23588327 C44.1669951,10.4288684 46.0569183,11.5152912 47.8586276,12.4706014 C52.9669328,15.1791493 57.1056424,16.6896055 59.7439234,16.6896055 L59.7439234,20.1372899 C56.378753,20.1372899 51.8210576,18.4739214 46.2435654,15.5165991 C44.3757228,14.5262234 42.4257698,13.4052925 40.4171754,12.1775644 C37.627028,10.472122 34.8620478,8.64730568 32.2441329,6.82255077 C31.3736883,6.21582818 30.5784685,5.64997804 29.8716819,5.1378477 Z"/>
    <path d="M19.25311,35.6989322 L21.1946411,35.6989322 C21.077799,35.9572213 21.0123445,36.2436664 21.0123445,36.5453388 C21.0123445,36.7142753 21.1492823,36.8516081 21.3180861,36.8516081 L24.6749282,36.8516081 C24.7751196,36.9352144 26.4269856,38.8440823 28.6251675,38.789494 C29.1109091,38.7774271 29.594067,38.7064623 30.0614354,38.5392496 C30.0648804,38.6326244 30.0643062,40.1197256 27.5979904,40.7072684 C26.2019139,41.0402573 25.2364593,41.619181 24.7469856,42.5112693 C24.2959809,43.3329674 24.3694737,44.1779374 24.4636364,44.6361921 C23.3793301,44.8531089 22.8723445,45.106801 22.6409569,45.343542 L35.7663158,45.343542 C35.5266029,45.0973199 34.9897608,44.8332847 33.8167464,44.6114837 C33.12689,44.480759 32.3110048,44.3836492 31.422201,44.3227401 L30.2994258,43.0091724 C32.5162679,41.5849914 32.9336842,39.7815652 32.9816268,39.6209605 C33.2626794,39.4859262 33.9114833,39.1302401 34.5292823,38.4728816 C34.8111962,38.1726458 35.4232536,38.2134434 36.0711962,38.2559648 C37.2789474,38.3361235 38.9173206,38.4441509 39.4133971,36.2359091 L41.4232536,36.2359091 C41.5920574,36.2359091 41.7289952,36.0991509 41.7289952,35.9299271 C41.7289952,34.5137907 40.577799,33.3614022 39.1627751,33.3614022 C39.1039234,33.3614022 39.045933,33.3642753 38.9882297,33.3682976 C38.5409569,32.7752959 37.8476555,32.4259305 37.097512,32.4259305 C35.7904306,32.4259305 34.7265072,33.4904031 34.7265072,34.7987993 C34.7265072,34.9677358 34.8637321,35.1047813 35.0325359,35.1047813 L36.7326316,35.1047813 C36.6447847,35.3642196 36.596555,35.6414708 36.596555,35.9299271 C36.596555,36.0991509 36.7332057,36.2359091 36.9022967,36.2359091 L38.4496651,36.2359091 C37.9251675,36.633542 37.3897608,36.5459134 36.5710048,36.4114537 C36.1774163,36.3468096 35.731866,36.2738336 35.2168421,36.2456775 C34.0148325,36.1816081 33.1822967,36.7728859 32.654067,37.1917796 C32.0555024,36.2298756 30.8850718,35.3012993 29.0916746,34.3643911 C28.2970335,33.9489451 27.8064115,33.4826458 27.5988517,32.9479674 L31.898756,32.9479674 C32.0678469,32.9479674 32.2047847,32.810922 32.2047847,32.6422727 C32.2047847,31.991235 32.0764593,31.3445069 31.8324402,30.745759 L34.2677512,30.745759 C34.4368421,30.745759 34.5734928,30.6084262 34.5734928,30.4394897 C34.5734928,28.8923413 33.3157895,27.6333619 31.7695694,27.6333619 C31.0286124,27.6333619 30.3542584,27.9232547 29.8521531,28.3950129 C29.7111962,28.306235 29.5662201,28.2255017 29.4183732,28.1519511 C29.3695694,27.6899614 29.2142584,27.2627358 28.9782775,26.8949828 L30.8377033,26.8949828 C31.0065072,26.8949828 31.143445,26.7579374 31.143445,26.5890009 C31.143445,25.4696527 30.2336842,24.5591767 29.1155024,24.5591767 C28.3346411,24.5591767 27.6384689,25.0007676 27.2997129,25.6836964 C27.0821053,25.6288208 26.8550239,25.5998027 26.6204785,25.5998027 C25.0742584,25.5998027 23.816555,26.8584949 23.816555,28.4062178 C23.816555,28.5691209 23.9448804,28.7018568 24.105933,28.7107633 C24.0333014,28.7679374 23.961244,28.8268353 23.8917703,28.8880317 C23.5469856,28.7007075 23.1620096,28.6012993 22.764689,28.6012993 C21.4576077,28.6012993 20.3939713,29.6657719 20.3939713,30.9744554 C20.3939713,31.1433919 20.5309091,31.2801501 20.7,31.2801501 L22.3843062,31.2801501 C22.2617225,31.7136964 22.1951196,32.1702273 22.1951196,32.6422727 C22.1951196,32.810922 22.3317703,32.9479674 22.5008612,32.9479674 L25.3995215,32.9479674 C25.5442105,33.8254031 26.015311,34.9866981 27.35311,36.00003 C27.6800957,36.2474014 28.0113876,36.459434 28.3162679,36.6493439 C28.0742584,36.725193 27.3904306,36.7424314 25.7598086,35.6983576 C25.3782775,35.4538593 24.9924402,35.2783148 24.6114833,35.1734477 C24.3301435,34.8585592 23.9543541,34.6295755 23.5283254,34.5330403 C23.177799,33.6337693 22.295311,33.0200815 21.3180861,33.0200815 C20.0110048,33.0200815 18.9473684,34.0842667 18.9473684,35.392663 C18.9473684,35.5618868 19.0840191,35.6989322 19.25311,35.6989322"/>
    <path d="M.52.772727273L5.23272727.772727273 16.36 15.5 16.36.772727273 21.2690909.772727273 21.2690909 23.6818182 16.5563636 23.6818182 5.46181818 8.98727273 5.46181818 23.6818182.52 23.6818182.52.772727273zM36.9781818.609090909C43.9818182.609090909 49.2836364 5.58363636 49.2836364 12.2272727 49.2836364 18.8381818 43.9818182 23.9109091 36.9781818 23.9109091 29.9745455 23.9109091 24.6727273 18.8709091 24.6727273 12.2272727 24.6727273 5.55090909 29.9745455.609090909 36.9781818.609090909zM37.0436364 5.12545455C33.1818182 5.12545455 29.9745455 8.20181818 29.9745455 12.2272727 29.9745455 16.2527273 33.2145455 19.3945455 37.0436364 19.3945455 40.8727273 19.3945455 43.9818182 16.2527273 43.9818182 12.2272727 43.9818182 8.20181818 40.8727273 5.12545455 37.0436364 5.12545455zM52.6872727.772727273L57.8581818.772727273 57.8581818 10.3290909 68.2327273 10.3290909 68.2327273.772727273 73.4036364.772727273 73.4036364 23.6818182 68.2327273 23.6818182 68.2327273 14.6490909 57.8581818 14.6490909 57.8581818 23.6818182 52.6872727 23.6818182 52.6872727.772727273zM5.499 38L4.896 36.578 1.719 36.578 1.116 38 .009 38 2.79 31.7 3.879 31.7 6.633 38 5.499 38zM2.115 35.633L4.491 35.633 3.303 32.834 2.115 35.633zM11.4136364 33.239C10.7296364 32.825 10.0456364 32.654 9.5686364 32.654 8.9476364 32.654 8.5426364 32.888 8.5426364 33.311 8.5426364 34.688 11.9446364 33.95 11.9356364 36.218 11.9356364 37.343 10.9456364 38.036 9.5596364 38.036 8.5696364 38.036 7.6336364 37.631 6.9856364 37.037L7.4446364 36.119C8.0926364 36.713 8.9026364 37.037 9.5776364 37.037 10.3156364 37.037 10.7566364 36.758 10.7566364 36.272 10.7566364 34.868 7.3546364 35.651 7.3546364 33.41 7.3546364 32.33 8.2816364 31.655 9.6496364 31.655 10.4686364 31.655 11.2696364 31.916 11.8546364 32.303L11.4136364 33.239zM15.8269092 31.7L16.8889092 31.7 16.8889092 38 15.8269092 38 15.8269092 31.7zM18.7085456 31.7L19.7525456 31.7 23.1275456 36.227 23.1275456 31.7 24.1715456 31.7 24.1715456 38 23.1275456 38 19.7705456 33.482 19.7705456 38 18.7085456 38 18.7085456 31.7zM25.253182 31.7L30.302182 31.7 30.302182 32.654 28.304182 32.654 28.304182 38 27.242182 38 27.242182 32.654 25.253182 32.654 25.253182 31.7zM31.3748184 31.7L35.8748184 31.7 35.8748184 32.654 32.4368184 32.654 32.4368184 34.355 35.5148184 34.355 35.5148184 35.309 32.4368184 35.309 32.4368184 37.046 35.9828184 37.046 35.9828184 38 31.3748184 38 31.3748184 31.7zM42.6444548 38L41.4384548 38 40.2864548 36.092C40.1964548 36.101 40.0974548 36.101 39.9984548 36.101L38.5044548 36.101 38.5044548 38 37.4424548 38 37.4424548 31.7 39.9984548 31.7C41.6094548 31.7 42.5364548 32.483 42.5364548 33.851 42.5364548 34.859 42.0684548 35.57 41.2314548 35.894L42.6444548 38zM38.5044548 35.147L39.9984548 35.147C40.9704548 35.147 41.5284548 34.733 41.5284548 33.878 41.5284548 33.05 40.9704548 32.654 39.9984548 32.654L38.5044548 32.654 38.5044548 35.147zM44.1130912 31.7L45.3730912 31.7 47.4520912 35.885 49.5220912 31.7 50.7730912 31.7 50.7730912 38 49.7920912 38 49.7830912 33.293 47.7940912 37.343 47.1010912 37.343 45.1120912 33.293 45.1120912 38 44.1130912 38 44.1130912 31.7zM52.6017276 31.7L57.1017276 31.7 57.1017276 32.654 53.6637276 32.654 53.6637276 34.355 56.7417276 34.355 56.7417276 35.309 53.6637276 35.309 53.6637276 37.046 57.2097276 37.046 57.2097276 38 52.6017276 38 52.6017276 31.7zM61.252364 31.7C63.142364 31.7 64.510364 33.023 64.510364 34.85 64.510364 36.668 63.133364 38 61.225364 38L58.669364 38 58.669364 31.7 61.252364 31.7zM61.279364 37.046C62.503364 37.046 63.439364 36.137 63.439364 34.859 63.439364 33.572 62.476364 32.654 61.234364 32.654L59.731364 32.654 59.731364 37.046 61.279364 37.046zM65.8080004 31.7L66.8700004 31.7 66.8700004 38 65.8080004 38 65.8080004 31.7zM73.3606368 38L72.7576368 36.578 69.5806368 36.578 68.9776368 38 67.8706368 38 70.6516368 31.7 71.7406368 31.7 74.4946368 38 73.3606368 38zM69.9766368 35.633L72.3526368 35.633 71.1646368 32.834 69.9766368 35.633z" transform="translate(72.91 10.364)"/>
  </g>
</svg>
