<svg version="1" xmlns="http://www.w3.org/2000/svg" width="1280" height="1280" viewBox="0 0 960.000000 960.000000"><path d="M477.6 87.1c-1.6.9-3.2 2.1-3.5 2.6-.3.5-3.7 3.1-7.6 5.8-3.8 2.7-7.2 5.1-7.5 5.5-.3.3-4.5 3.4-9.5 7-4.9 3.5-9.1 6.8-9.3 7.2-.2.4-1 .8-1.8.8s-1.4.4-1.4 1c0 .5-.6 1-1.4 1-.8 0-1.6.4-1.8.8-.1.4-3.2 2.8-6.8 5.2-3.6 2.5-7.8 5.5-9.5 6.7-3.5 2.7-3.7 2.8-9.7 7-2.5 1.8-5.1 3.3-5.6 3.3-.6 0-1.2.4-1.4.8-.4 1.1-13.7 10.2-14.8 10.2-.6 0-1 .4-1 .8 0 .5-1.6 1.7-3.5 2.8-1.9 1-3.5 2.2-3.5 2.6 0 .5-.4.8-.9.8s-5.5 3.1-11.2 7c-5.7 3.8-11.1 7.5-11.9 8-.8.6-5.8 3.8-11 7.2-5.2 3.4-13.8 9-19.1 12.5-5.3 3.5-10.1 6.3-10.7 6.3-.6 0-1.2.3-1.4.7-.1.5-4.6 3.4-9.8 6.7-5.2 3.2-11.7 7.3-14.5 9-5.7 3.5-6.6 4.2-15 9.1-3.3 2-9.3 5.6-13.3 8.1-4.1 2.4-7.8 4.4-8.3 4.4-.5 0-.9.4-.9 1 0 .5-.6 1-1.4 1-.8 0-2.1.6-2.8 1.2-.7.7-3.1 2.3-5.3 3.5-2.2 1.1-5.6 3-7.5 4.2-3.9 2.3-12.3 6.8-15.7 8.5-1.3.6-2.3 1.4-2.3 1.8 0 .5-.9.8-1.9.8-1.1 0-2.1.4-2.3.8-.3 1-28.8 16.1-30.2 16.1-.5-.1-1.2.3-1.5.9-1 1.6-37.6 19.2-59.6 28.7-6 2.6-12.3 5.3-14 6-1.6.8-6.8 2.8-11.5 4.5-4.7 1.8-9.2 3.6-10.1 4-.9.5-3.6 1.4-6 2.1-5.4 1.6-5 1.4-7.4 2.3-3.9 1.5-7.1 2.5-11.5 3.7-5.2 1.4-4.8 1.3-12 3.4-3 .8-6.8 1.7-8.5 2-2.5.4-7.5 1.5-9.5 2-.3.1-3.2.5-6.5.9-3.3.5-6.9 1-7.9 1.2-1.1.2-4.6.4-7.8.5l-5.8.2v55.5l7.8-.3c9.4-.4 20.8-1.7 27.6-3.1 1.1-.2 3.7-.7 5.6-1 1.9-.3 4.3-.7 5.2-1 .9-.3 2.5-.6 3.5-.8 5.1-1.1 19.7-5 26.8-7.2 4.4-1.5 8.7-2.8 9.5-2.9.8-.2 5.3-1.8 10-3.5s9.6-3.5 11-3.9c6.6-2.1 33.6-13.6 34.2-14.5.4-.6.8-.8.8-.4 0 .9 6.8-2.1 32.5-14.3 3.9-1.8 7.2-3.2 7.4-3 .2.1.7-.1 1-.6.3-.5 4.4-2.8 9.1-5.1 24-12 73.2-38.9 73.8-40.4.2-.4.9-.8 1.5-.8.7 0 4-1.8 7.5-4 3.4-2.2 6.5-4 6.8-4 1.1 0 52.3-31.6 76.4-47.1 2.5-1.6 5.2-3.3 6-3.9.8-.5 15.1-10.1 31.8-21.2 16.7-11.2 31.2-20.7 32.3-21.3 1-.5 1.9-1.3 1.9-1.7 0-.5.7-.8 1.5-.8s1.5-.4 1.5-.8 3-2.8 6.8-5.2c3.7-2.4 7.2-4.8 7.7-5.3.6-.4 4.8-3.5 9.5-6.7s9-6.3 9.5-6.7c4.8-4.1 13-9.1 13.9-8.6 1.2.7 10.4 7.2 12.1 8.6 4.1 3.3 16.5 11.7 17.3 11.7.6 0 1.2.3 1.4.7.5 1.3 11.6 9.3 12.8 9.3.5 0 1 .3 1 .7 0 .5 2.8 2.6 6.3 4.8 3.4 2.2 6.4 4.2 6.7 4.5.3.3 3.9 2.7 8 5.5 4.1 2.7 7.8 5.4 8.2 6 .5.6.8.6.8 0s.3-.6.8.1c.4.6 5.4 4.2 11.2 8 5.8 3.8 10.7 7.2 10.8 7.6.2.5.7.8 1.2.8.7 0 9.4 5.4 12.5 7.8.6.4 8.4 5.4 17.5 11.2 9.1 5.7 16.7 10.7 17 11 .3.3 1.6 1.1 3 1.8s3.7 2 5.1 3c4.3 2.8 54.3 32.8 55.9 33.5.8.4 2.9 1.6 4.5 2.6 1.7 1.1 5.1 3.1 7.6 4.5 2.5 1.3 6.6 3.6 9 5.1 2.4 1.4 6 3.3 7.9 4.3 1.9.9 3.7 1.9 4 2.2.3.3 2.5 1.6 5 2.9 2.5 1.3 7.9 4.1 12 6.4 52.2 28.1 108.5 52.3 149.5 64.3 3.3.9 6.7 1.8 7.5 1.9.8.1 4 .9 7.1 1.8 3 .9 7.3 1.9 9.5 2.2 2.1.3 4.6.8 5.3 1.1.8.3 3.4.7 5.7 1 2.3.3 5.3.7 6.5.9 3.8.8 17 1.9 22.4 1.9l5 .1.3-27.6.2-27.5-4.7-.2c-5.3-.3-13.4-1.1-17.5-1.8-7.2-1.1-9.5-1.6-17.1-3.4-4.5-1.1-9.3-2.3-10.7-2.6-1.4-.2-6.8-1.9-12-3.6-5.2-1.6-9.9-3.1-10.5-3.3-.5-.1-1.9-.5-3-.9-1.1-.5-4.5-1.7-7.5-2.8-3-1.1-6.4-2.4-7.5-2.8-1.1-.5-5.1-2.1-9-3.5-3.8-1.5-8.8-3.5-11-4.5-2.2-1-7.4-3.2-11.5-5-17.2-7.4-72.3-34.4-75.6-37.1-.6-.5-4-2.4-7.6-4.3-3.6-1.8-8.6-4.5-11.1-6-2.6-1.4-6.8-3.8-9.4-5.2-2.7-1.5-7.5-4.2-10.8-6.2-3.3-1.9-7.6-4.4-9.5-5.5-1.9-1.1-4.8-2.8-6.5-3.8-1.6-1.1-3.7-2.2-4.5-2.6-.8-.4-3.8-2.1-6.6-3.9-2.8-1.8-6.6-4.1-8.5-5.2-7.7-4.3-54.4-33.7-54.7-34.4-.2-.5-.8-.8-1.3-.8s-3.1-1.6-5.8-3.5c-2.6-1.9-5.3-3.5-5.8-3.5-.6 0-1.8-.9-2.8-2-1-1.1-2.2-2-2.6-2-.9 0-9.5-5.7-11.6-7.7-.7-.6-2.2-1.5-3.3-1.8-1.1-.3-2-1.1-2-1.6s-.7-.9-1.5-.9-1.5-.5-1.5-1c0-.6-.7-1-1.5-1s-1.5-.5-1.5-1c0-.6-.4-1-1-1-.5 0-5.4-3.2-10.9-7-5.5-3.9-10.5-7-11.1-7-.5 0-1-.3-1-.8 0-.4-1.8-1.8-4-3.2-2.2-1.4-4-2.8-4-3.2 0-.5-.5-.8-1.1-.8-1.3 0-41.6-28.3-46.1-32.4-1-.9-2.2-1.6-2.6-1.6-.5 0-1.7-.8-2.8-1.8-1-1-5.9-4.7-10.9-8.2-4.9-3.6-9.9-7.3-11-8.3-3.5-3.2-4.9-3.5-7.9-1.6z"/><path d="M180.9 371c-.1 3.3-.1 496.4 0 501.2l.1 3.8h598.7l.2-20.8c0-11.4.1-21.4.1-22.2 0-.8 0-11-.1-22.5-.1-11.6-.1-22.4 0-24 .1-1.7.1-10.9 0-20.6-.1-9.7.1-18.1.5-18.7.4-.7.4-1.2-.1-1.2-1 0-.9-29.3.1-30.9.4-.6.4-1.1-.1-1.1-1 0-.9-29.3.1-30.9.4-.6.4-1.1-.1-1.1-1 0-.9-29.3.1-30.9.4-.6.4-1.1-.1-1.1-1 0-.9-29.3.1-30.9.4-.6.4-1.1-.1-1.1-1 0-.9-29.3.1-30.9.4-.6.4-1.1-.1-1.1-1 0-.9-29.3.1-30.9.4-.6.4-1.1-.1-1.1-1 0-.9-29.3.1-30.9.4-.6.4-1.1-.1-1.1-.7 0-.9-12.2-.4-23.5.1-1.7.1-12.5 0-24-.1-11.6-.1-22.4 0-24 .1-1.7.1-12.5 0-24-.1-11.6-.1-22.4 0-24 .1-1.7.1-10 0-18.5l-.2-15.5H181l-.1 2.5zm548.7 44h4.1l-.1 207.2-.1 207.3-253.2.2-253.3.2-.1-2.7c0-1.5 0-94.7-.1-207.1 0-137.1.3-204.6 1-205 .7-.4 459.9-.6 501.8-.1z"/><path d="M467.8 465.5c-.2.2-2.1.5-4.3.7-8.3 1-15.2 5.5-23.6 15.6-1.4 1.6-2.4 1.8-5.8 1.2-5.6-1-15.5-.1-20.4 1.9-1.6.6-3.2 1.1-3.6 1.1-1.1 0-11.2 7.2-14.1 10.1-7 7-11.4 16.9-12.5 28.2-.4 3.9-.2 5 1.5 6.4 4.3 3.7 1 4.9-6.2 2.1-3.3-1.2-7.6-2-11.3-1.9-5.5 0-11 .6-11 1 0 .2-.7.4-1.5.6-7.8 1.5-18.1 10.3-22.4 19-4.1 8.4-5.3 18.2-2.6 20.9.6.6 6.5 1.1 14.3 1.2 7.2.1 13.8.2 14.6.3.9.1 1.1.9.6 2.8-.8 3.1-1 4.8-1.9 14-.5 4.8-.3 6.5 1 7.7 1.9 2-.5 1.8 26.7 2l22.9.1 1.4 4c.7 2.2 1.4 4.6 1.4 5.4 0 2.1 7.9 18.1 8.9 18.1.5 0 1.3 1 1.7 2.2.7 2.3 13.8 16 18.4 19.1 1.4 1 5.4 3.8 8.9 6.2 3.6 2.5 5.8 4.5 5 4.6-6.1.5-15.4-2.3-25.9-7.8-4.7-2.5-8.7-4.8-9-5.2-.5-.7-5.1-3.2-11.5-6.4-2.2-1.1-4.8-2.3-5.7-2.8-1-.5-2.4-.9-3.2-.9-.8 0-2.7-1.3-4.3-2.8-1.5-1.5-5.9-4.4-9.8-6.3-4.4-2.2-7.1-4.1-7.3-5.3-.2-1.1-.9-2.5-1.6-3.2-.6-.7-2.8-3.3-4.9-5.8-2.1-2.5-4.5-4.6-5.3-4.6-.8 0-1.4-.3-1.4-.8 0-.4-2.1-1.7-4.7-2.9-10.7-5-22-4.9-32.9.3-11 5.2-19.6 17.6-20.9 30.1-1 8.6-.7 8.7 18.5 8.8 8.8 0 16.2.3 16.5.6.3.4 0 1.9-.6 3.5-1.8 4.4-1.8 10.6-.1 12.6 1.4 1.6 4.1 1.8 29.4 1.8h27.9l4 4c13.2 13 30.9 23 46.4 26 5.1 1 12.7 1.5 14.5 1 .3 0 3-.3 6-.5s7.6-1 10.2-1.8c2.6-.8 4.9-1.3 5.1-1 1 1-1.8 9.1-4.6 13.3-4 6.1-12.4 13.1-18.7 15.6-.8.3-2.4 1-3.5 1.4-2.2.9-9.4 3.3-11 3.6-14.8 2.9-30.6 10.5-38.9 18.8-5.7 5.7-11 14.2-12.2 19.8-1.8 8.1-2.3 15.5-1.3 21 .6 3.9.6 3.9-6.6 5.4-7.3 1.4-22.3 7.9-21.1 9.2.9.8 206.5.9 207.9 0 .6-.4.9-.8.7-1-2.7-1.7-7.6-3.9-12.7-5.7-6.1-2.1-7.7-2.6-13.8-3.6-1.6-.3-3.7-.8-4.5-1-2.1-.6-6.7-1.3-12.5-2-2.7-.3-6.6-.8-8.5-1-1.9-.3-6.4-.8-10-1-5.8-.5-6.8-.9-9.3-3.8-9.1-10.4-10.8-12.5-12.9-15.1-2.1-2.8-2.1-3-.4-4 1-.6 3-2.1 4.4-3.4 1.4-1.2 2.8-2.2 3.2-2.2.8 0 12.2-11.1 16.3-15.8 6.4-7.5 16.7-26.2 16.7-30.5 0-.8 1.4-2 3.1-2.8 3.9-1.5 13.9-8.9 19.7-14.3 2.4-2.2 5.5-4.5 7-5.2 1.8-.7 9.5-1 22.9-.8 18.2.3 20.7.1 25.5-1.7 2.9-1.1 5.9-2.1 6.6-2.3 2.4-.4 11-9.3 13.4-13.7 1.3-2.4 3-6.7 3.8-9.4l1.6-5 8.4-.2c4.7-.1 12.4-.2 17.2-.2 10.8-.1 12-1 11.3-8.4-.8-9.5-4.2-17-11.3-25.2-2.2-2.5-8.3-6.9-11.7-8.4-5.4-2.5-7.6-3-14.8-3.8-5.1-.5-6.3-1.1-10.7-5.2-6.6-6.2-15.4-9.6-26.5-10.3-6-.3-17.3 4.1-23.4 9.2-9.7 8-16.6 25.9-12.4 31.9 1.3 2 2.4 2.1 16.3 2.1h15l-.9 2.3c-1.9 5-2 11.6-.3 13.7 1.6 2 2.7 2.1 15.2 2.1h13.5l-4 2.1c-3.8 2-16.5 3.3-18.9 2-.5-.3-2.1-.6-3.5-.7-2.5-.2-7.5-1-15.6-2.4-6.9-1.2-22.5-.5-28.5 1.3-2.7.9-11.2 4.8-12 5.6-.3.3-1.7 1.1-3.2 1.9-1.5.8-3.8 2.3-5 3.5l-2.2 2-3-3.9c-10.4-13.2-27.6-26.9-46.1-36.6-3.3-1.7-6.3-3.6-6.6-4.1-.3-.5-1-1-1.5-.9-.5 0-2.5-1-4.4-2.2-1.9-1.2-3.9-2.3-4.4-2.6-1.3-.5-5.6-4.2-8.4-7.1-2.1-2.2-7.2-9.4-7.2-10.3 0-.1 15.9-.2 35.3-.2 41.7 0 39.3.7 38.3-11-.7-8.5-1.2-11-3.9-19.8l-1.5-4.8 18.7.1c20.9.2 23.9-.2 24.6-3.4.8-3.8-.2-11-2.5-17.1-4.1-10.9-11.9-19.5-22.5-24.9-6.7-3.3-10.3-4-20.5-4-8.8 0-19.6 3-22.1 6-.6.8-1.8 1.4-2.5 1.4-.8 0-1.9.9-2.6 2-1.2 1.9-4.8 2.8-4.8 1.2 0-.4-1-1.2-2.1-1.7-1.6-.7-2.8-3.1-4.4-8.8-1.2-4.3-2.7-8.3-3.4-9-.6-.6-1.1-1.7-1.1-2.4 0-1.1 2.7-1.4 12.8-1.3 17.7.2 17.9.2 19.7-1.6 1.1-1.1 1.4-2.9 1.2-5.7-1.1-11.2-8.3-21.9-17.9-26.4-3.9-1.9-14.3-4.5-15-3.8z"/></svg>