<svg version="1" xmlns="http://www.w3.org/2000/svg" width="933.333" height="933.333" viewBox="0 0 700.000000 700.000000"><path d="M345 79.8c-5.7 4.7-28.4 21.1-45.5 32.8C173.4 199.8 74.6 249.4 21.7 252.2l-3.7.2.2 19.1.3 19 3.5-.1c5.9-.1 18.2-1.5 23-2.6 2.5-.5 5.8-1.2 7.3-1.5 8.6-1.4 41.6-12.1 52.2-16.8 1.7-.8 8.9-3.9 16-7.1 12.7-5.5 39.8-18.8 49.9-24.3 2.8-1.6 8.3-4.6 12.1-6.6 41.8-22.8 106-63.7 155.7-99.2l11.8-8.4 15.7 11.2c15.3 10.9 60.7 41.4 76.6 51.5 86.1 54.5 156.3 88.7 203.7 99.3 10.2 2.3 26.3 4.6 32 4.6h3.5v-37.9l-10.5-1.2c-17-1.9-45.9-10.4-65.2-19.3-2.6-1.1-4.9-2.1-5.2-2.1-1.5 0-40.7-19.2-55.6-27.2-55.3-30-125.5-75.1-182.1-117.1-6.5-4.8-12.4-8.7-13.1-8.7-.7 0-2.9 1.3-4.8 2.8z"/><path d="M142.7 273.5c-.2.5-.3 79.5-.3 175.5l.1 174.5 207.3.1 207.2.1V272.5H350c-137.1 0-207.1.3-207.3 1zM525 316c.1 88.6.1 265.8 0 270.1v5.6H350c-160.8 0-175-.1-175.1-1.6-.6-6.5-.3-284.7.2-285.1.4-.3 79.3-.5 175.3-.5H525V316z"/><path d="M331.4 342.5c-2.7 1.4-6 4-7.3 5.8-2.4 3.2-2.6 3.3-10 3.4-12.3 0-22.8 6.3-28 16.7-2.7 5.6-4 15.4-2.1 16.6.7.4 1 1.2.6 1.8-.4.7-1.8.6-4.2-.4-8.7-3.6-20.7-1-27.9 6.1-4.8 4.8-6.6 8.8-7.2 15.7-.7 6.6-2 5.9 11.7 6.3 4.1.1 8 .3 8.6.4.9.1.9 1.3.3 4.1-1.2 5.2-1.4 11.8-.5 12.8.4.4 8.4.9 17.8 1.2l17 .5 1.8 5.7c3.6 11.5 12.8 23.2 24.1 30.5 3.2 2.1 5.9 4.1 5.9 4.4 0 1.6-11.3-1.7-18-5.3-16.9-9.1-20.3-10.8-21.7-10.8-.7 0-1.6-.6-1.9-1.4-.3-.7-2.9-2.5-5.7-4-3.2-1.6-6-3.9-7.2-5.9-2.2-3.7-4.5-5.9-10-9.6-3.5-2.2-5.1-2.6-12-2.6-9.1 0-13.6 1.7-19.1 7.2-3.7 3.7-6 8-7.2 13.8-1.6 7.9-1.2 8.1 14.1 8l9.9-.1-.7 3.1c-.3 1.6-.8 3.7-1 4.7-.2.9.2 2.4.9 3.3 1.1 1.5 3.6 1.7 20.7 1.9l19.4.1 4 3.8c6 5.8 14.1 11.1 22 14.2 6 2.5 8.4 2.9 17 2.9 5.5 0 11.5-.5 13.4-1.2l3.3-1.2-.6 3.2c-1.8 8.8-9.7 15.3-24.3 19.9-14.9 4.7-19.4 6.7-24.5 10.4-9.3 6.8-13.6 15.6-13.4 27.2.1 7.9.4 7.5-7.2 8.9-2.8.5-11 4.3-11.7 5.4-.2.4 32.2.7 72 .7s72.2-.4 71.9-.9c-1-1.6-6.2-3.7-14-5.7-8.7-2.2-15.1-3.2-29.7-4.5-2.1-.2-3.9-.6-4.1-.7-.1-.2-2.8-3.5-6-7.3-5.4-6.5-5.7-7.1-4-8.2 5.9-3.9 12.1-9.6 16.3-14.9 4.7-5.8 11.1-17.1 11.1-19.7 0-.7 2.3-2.7 5.1-4.3 2.8-1.7 6.5-4.4 8.3-6.1 7-6.8 7-6.8 27.1-6.5 10.8.2 14.6-.6 20.2-4 4-2.5 8.9-9.5 10.3-15l1-3.5h11.6c6.4.1 12.1-.2 12.7-.6.7-.4 1.1-2.8 1-5.7-.3-8-5.7-16.7-13-21.2-3.8-2.4-14.1-5.2-15.6-4.2-.5.3-2.3-.9-4-2.7-12.4-12.7-33.8-9.1-41.9 7-2.9 5.8-3.6 11.8-1.6 13.8.8.8 4.7 1.2 11 1.2h9.7l-.6 5c-.8 7 0 7.7 9.7 7.5 8.5-.2 11.2.8 5.8 2.3-4.4 1.2-9.3.9-26-1.8-10.2-1.5-21.4 1.1-29.4 6.8l-3.8 2.8-8.1-8.1c-7.8-8-16-13.9-28-20.5-3.3-1.8-7.6-4.3-9.6-5.6-3.6-2.2-10.9-10-10.9-11.6 0-.4 11-.8 24.4-.8 19.9 0 24.6-.3 25.5-1.4 1.7-2 .2-14.9-2.5-21.9-.3-.9 3-1.2 13.6-1.2 10.3 0 14.4-.3 15.2-1.2 1.5-1.9.5-10-2-15.3-7.7-16.8-29.8-23.1-45.1-12.9-5.4 3.7-8.5 3-9.6-2.3-.4-1.8-1.4-4.9-2.2-6.8-.8-1.9-1.3-3.7-1.1-3.9.2-.2 4.8-.4 10.3-.4 5.5 0 10.6-.4 11.3-1 3.3-2.6-.1-13-6.3-19-6.4-6.3-16.5-7.5-25.1-3.2z"/></svg>